<?xml version="1.0" encoding="UTF-8"?>
<svg id="Layer_1" data-name="Layer 1" xmlns="http://www.w3.org/2000/svg" viewBox="0 0 639.21 405.27">
  <path d="M509.92,212.63c-2.78,2.27-6.95.5-9.39,5.06,11.24,1.22,21.8,2.76,32.42,3.38,7.25.43,14.58-.54,21.88-.65,11.56-.18,19.96,5.58,26.51,14.58,9.82,13.49,11.31,30.27,17.74,45.11,1.87,4.3,3.01,12,7.98,10.19,5.31-1.94,2.13-8.97.39-13.66-3-8.1-6.36-16.07-9.44-24.15-.9-2.37-2.51-4.93,1.08-8.37,7.87,16.01,18.26,30.35,18.37,48.74.03,5.31.81,10.13,3.79,14.63,2.47,3.73,3.04,8.06,2.81,12.48-.35,6.82.31,13.45,2.51,20,1.05,3.11.97,8.2-3.75,6.41-11.02-4.17-21.09-10.27-27.96-22.57,8.24,1.13,12.09,6.47,17.25,9.45,2.43,1.4,4.05,5.39,7.4,3.73,2.37-1.18,1.5-4.43,1.19-6.75-.49-3.73-.87-7.83-5.63-8.83-2.9-.61-5.9-.72-8.78-1.38-1.49-.34-3.43-1.18-2.92-3.2.53-2.08,2.48-1.48,4.08-1.34,3.34.29,7.28,4.14,9.76.82,2.73-3.65-1.62-7.44-2.54-11.25-.37-1.54-.71-3.47-2.68-3.62-2.17-.16-3.44,1.45-4.14,3.3-1.6,4.18-4.2,7.55-7.87,10.07-1.38.95-3.12,1.64-4.53.53-1.98-1.57-1.07-3.79.26-5,7.37-6.64,4.09-9.81-3.34-12.89-3.89-1.61-7.8-4.74-3.61-10.05.46-.58.77-1.6.62-2.3-3.33-15.79-3.76-32.45-13.06-46.5-5.33-8.05-13.23-11.61-22.84-11.71-8.68-.09-17.3.32-25.91,1.44-4.87.63-9.7-.27-14.48-1.39-1.96-.46-4.58-2.13-5.93.22-1.37,2.4.64,4.77,2.26,6.46,7.66,8.04,15.7,15.67,24.69,22.24,3.73,2.73,7.03,4.39,3.65,10.77-2.29,4.32.01,11.03.08,16.68.02,1.76.57,4.55-1.74,4.82-3.16.37-2.61-2.77-2.85-4.71-.26-2.14-.27-4.33-.12-6.49.51-7.62,0-12.43-8.88-17.47-10.97-6.23-19.37-17.71-26.63-28.86-4.72-7.26-9.45-14.21-16.3-19.95-4.44-3.71-3.97-10.48-.63-15.41,14.58-21.53,12.18-46.29-7.01-63.7-3.2-2.91-5.59-5.46-6.05-9.85-.56-5.38-5.89-8.07-9.12-13.82,6.84,1.94,11.38,4.98,14.44,9.19,11.69,16.14,25.39,31.01,32.51,50.13,1.03,2.78,3.04,5.39,5.97,2.63,4.52-4.27,8.37-9.33,9.58-15.66,4.12-21.46,9.45-42.54,20.52-61.64,3.08-5.31,2.12-10.25,2.26-15.88.42-16.23-.24-32.58.19-49.47,3.89,1.36,2.79,2.77,2.68,3.92-.14,1.32-.34,2.64-.7,5.33,4.45-4.27,6.67-3.58,6.67,1.68,0,7.58-.17,15.16,0,22.74.24,10.58,8.4,19.59,18.83,19.42,11.18-.18,21.35,2.54,31.36,7.02,4.98,2.23,9.73,3.76,10.62,10.66.62,4.78,5.88,5.95,10.16,6.75,4.65.87,7.64-2.13,10.09-5.51,2.84-3.91-.43-6.52-2.37-9.3-2.77-3.97-5.22-7.9-.65-12.21,2.99-2.82,1.06-4.71-1.14-6.62-12.66-10.95-24.48-22.87-38.46-32.29-4.91-3.31-9.43-6.39-17.3-2.79,3.68-5.2.97-7.01-1.72-8.93-2.2-1.57-4.34-3.24-6.41-4.98-1.84-1.55-4.38-3.36-2.2-5.94,1.81-2.13,3.97-.04,5.77.99,17.47,10,33.23,22.25,47.71,36.2,5.25,5.06,9.99,10.68,16.4,14.45,2.39,1.41,4.08,3.42,4.38,6.45.59,5.89,1.91,11.61,1.45,17.7-.5,6.6-2.25,12.32-8.85,13.89-7.05,1.69-14.84,2.35-20.49-3.91-9.84-10.88-22.34-15.36-36.53-16.22-2.97-.18-6.41.57-8.82-.69-8.2-4.26-12.14-.08-16.28,6.31-7.43,11.45-9.76,24.5-12.95,37.31-.98,3.93-.75,8.44-2.62,11.83-7.34,13.31-1.95,27.43-3.34,41.07-.36,3.55,2.46,4.45,4.98,5.48,8.01,3.28,15.91,6.59,22.87,12.07,4.75,3.75,11.02,1.92,16.61,1.9,5.09-.02,8.68,1.15,10.97,6.25,2.81,6.26,8.81,10.79,10.94,19.03-5.72-1.9-9.64-4.66-11.81-8.99-2.9-5.78-7.38-7.46-13.46-8.66-7.32-1.45-14.48-3.46-20.55-9.5-4.18-4.16-12.46-3.85-17.75-7.3-7.56-4.94-11.89-3.21-15.6,4.12-1.51,2.98-4.17,4.86-7.1,6.44-2.37,1.28-5.2,2.72-5.45,5.61-.35,3.98,4.68,1.58,6.05,4.65Z" stroke-width="0"/>
  <path d="M501.19,295.21c1.49,2.52,4.29.82,5.17,3.07-.25.45-.4,1.14-.78,1.31-10.4,4.73-19.37,11.82-29.08,17.68-5.07,3.06-10.42,4.65-16.24,3.98-4.84-.56-9.87-.83-8.48-8.56.75-4.19-3.25-7.15-6.42-9.72-6.81-5.53-14.9-8.74-22.77-12.35-2.45-1.12-5.45-2.02-5.62-5.19-.19-3.63,3.29-3.9,5.68-4.72,5.1-1.76,10.29-3.3,15.5-4.73,1.5-.41,3.5-.37,3.92,1.74.3,1.5-.98,2.46-2.22,3.02-3.2,1.44-6.48,2.71-9.7,4.12-3.95,1.73-3.59,3.5-.04,5.38,5.14,2.72,10.03,4.6,13.74-2.16.89-1.62,2.43-2.89,3.65-4.34,7.77-9.27,7.72-9.23,14.86.36,3.2,4.3,8.73,5.66,12.99,5.5,11.25-.45,22.81-1.41,31.81-9.75,2.84-2.63,6.94-4.94-1-6.84-5.41-1.29-8.13-7.4-13.2-10.33-16.16-9.35-34.12-15.13-49.62-25.78-4.4-3.02-9.93-2.4-15.02-1.18-14.19,3.39-28.78,4.66-43.12,6.61-16.83,2.28-33.84-2.3-50.17-7.31-9.31-2.85-9.91-2.92-9.74,6.47.11,5.97-.27,11.86-1.09,17.79-1.63,11.83,4.96,24.18,15.77,29.48,10.93,5.36,22.04,10.27,33.74,13.85,10.01,3.06,19.49,7.03,22.84,18.53.89,3.06,3.75,4.37,6.23,6.07,7.73,5.28,12.02,13.1,16.07,21.26-1.34.63-2.2,1.08-2.22,1.04-6.96-12.06-22.05-16.51-27.79-29.66-1.47-3.37-4.38-4.57-7.48-5.68-15.29-5.47-30.05-11.84-43.89-20.66-13.36-8.51-20.73-20.62-18.74-36.36,1.5-11.9,1.33-23.41-1.07-35.36-2.75-13.71.52-28.08-2.2-42.04-.55-2.8-1.95-5.67-.67-9.26,7,2.78,8.33,8.73,8.57,14.86.36,9.19.3,18.4.03,27.6-.17,5.82,2.28,8.79,7.8,10.51,24.92,7.73,50.43,9.07,76.24,7.68,5.13-.28,10.25-.56,15.37-1.01,3.73-.33,7.38-2.14,4.11-6.02-6.68-7.89-2.04-15.88-.56-24.27,2.48,7.15,5.44,14.18,7.26,21.5,1.31,5.28,4.98,5.71,8.96,6.53,4.58.95,6.34-2.57,8.04-5.46,2.19-3.71,14.55-16.83,18.22-18.4,1.69-.72,3.78-2.03,5.16-.05,1.34,1.92-.54,3.49-1.71,4.91-4.79,5.86-9.44,11.85-14.49,17.47-3.62,4.04-4.85,6.83,1.33,9.6,10.8,4.83,21.28,10.37,32.1,15.16,10.66,4.72,19.43,11.63,26.4,20.86,4.42,5.85,3.19,11.36-3.42,14.53-4.7,2.25-8.63,5.44-13.02,8.76ZM454.85,282.21q-8.96,10.61-.51,19.07c.38.38.86.7,1.12,1.16,7.09,12.46,10.6,8.25,23.19,3.62-5.15-3.48-9.28-8.45-16.84-7.37-3.35.48-6.07-3.13-6.47-7.09-.26-2.64-.29-5.3-.5-9.38Z" stroke-width="0"/>
  <path d="M253.89,401.92c5.09-3.88,10.85-3.62,16.33-4.36,13.18-1.77,26.44-1.57,39.7-1.76,7.26-.1,11.95-5.5,11.26-12.46-.33-3.35-2.94-3.32-5.19-4.09-5.85-1.99-11.25-2.26-10.17-12.4.8-7.55-6.53-15.59-11.51-22.64-7.16-10.15-14.15-20.48-23.16-29.2-8.27-8-9.02-17.56-4.55-27.61,3.36-7.55,3.87-15,1.71-22.93-1.77-6.5-3.3-13.04-4.05-19.81-1.48-13.41-12.3-19.42-21.76-26.7-16.09-12.39-28.91-26.97-27.81-49.22q.18-3.59,3.06-8.6c2.66,3.63,2.81,7.72,3.49,11.49,2.26,12.49,8.95,21.94,19.43,28.73,7.88,5.09,15.01,11.36,24.18,14.45,6.77,2.28,11.31,6.95,14.91,13.63,9.14,16.97,17.32,33.76,11.49,53.84-.86,2.97.16,5.97,3.06,7.79,3.77,2.36,3.32-1.42,4.69-3.01,1.79-2.09,11.61,1.48,11.97,4.81.59,5.45,4.44,6.95,8.21,7.59,20.51,3.47,36.8,16.53,55.59,23.85,3.95,1.54,4.82,5.09,5.19,8.53.45,4.16,1.54,7.24,6.55,6.91-1.31,3.79-4.97,2.68-7.34,4.77,8.37,7.41,19.28,5.79,30.06,8.48-10.7,5.86-27.67,2.68-33.43-5.09-2.32-3.13-1.35-6.77-1.23-10.2.08-2.27.44-5.23-2.33-5.08-7.05.36-10.28-5.25-14.96-8.56-11.98-8.48-26.41-10.92-39.65-16.31-.25-.1-.52-.21-.78-.21-4.14-.14-8.67-6.21-11.61-2.21-3.22,4.38-2.46,11.35.04,16.37,6.61,13.3,14.35,25.98,24.25,37.21,1.78,2.02,4.01,4.02,4.84,6.44,6.1,17.7,23.78,22.55,36.49,32.76,5.57,4.47,13.69,1.66,20.64,2.19,2.31.18,5.98-.63,6.21,2.25.28,3.57-3.52,2.33-5.64,2.49-44.34,3.3-88.68-1.3-133.02.05-1.55.05-3.28.24-5.16-2.19ZM261.86,224.62c7.89,13.01,8.72,27.17,11.56,40.81,2.24,10.75,1.02,21-3.9,30.71-3.02,5.97-.77,9.85,3.38,14.27,14.8,15.73,29.95,31.29,37.75,52.14.63,1.69,1.84,4.01,3.26,4.42,9.39,2.75,10.44,11.37,13.18,18.56,1.16,3.05,2.4,3.4,4.57,2.05,2.26-1.4,7.83-2.34,5.65-5.11-5.55-7.06-4.39-17.3-11.25-23.08-11.39-9.61-16.9-22.79-23.45-35.46-2.59-5.01-4.27-10.23-3.03-15.59,1.48-6.41-1.22-10.05-6.58-12.01-9.15-3.34-10.57-9.49-8.02-18.06,2.03-6.81,2.61-14.11-.19-20.72-3.99-9.43-8.92-18.47-13.49-27.66-1.77-3.56-4.07-6.36-9.45-5.27Z" stroke-width="0"/>
  <path d="M540.09,10.72c1.66,4.63,5.44,6.14,8.99,7.96,1.22.63,2.68,1.39,2.16,2.94-.72,2.16-2.84,1.75-4.04.89-7.05-5.04-12.09-.88-18.21,2.64-18.16,10.45-31.78,25.98-46.28,40.4-10.51,10.45-21.65,20.83-34.95,25.87-14.19,5.37-26.56,12.49-38.23,21.6-1,.78-2.47,1.07-3.77,1.32-.69.13-1.49-.3-4.23-.96,9.13-5.24,6.9-11.43,3.89-18.21-1.73-3.9-.56-8.4,2.07-12.72-5.64.42-5.23,5.25-8.27,8.03-1.6-5.04-1.38-8.92,1.38-12.7,5.43-7.43,14.31-11.62,18.7-20.01,8.03,1.91,10.57-5.63,15.53-9.01,2.4-1.63,3.94-3.83,3.72-6.78-.49-6.68,3.78-9.86,8.51-13.53,12.39-9.62,26.05-14.18,41.66-12.61,3.55.36,9.36-.86,9.49,3.45.11,3.7-5.84,4.04-9.42,4.3-8.38.61-16.76.91-24.72,4-1.51.59-3.19.86-4.57,1.66-2.1,1.22-6.09,1.04-5.15,4.93.8,3.34,3.79,4.18,7.03,4.3,8.88.35,17.71-.36,26.66-.59-9.34,6.82-20.05,6.8-30.64,5.18-11.93-1.82-25.59,8.59-26.44,21.6,4.32-1.61,3.79-8.15,8.9-8.36q-3.87,9.28,3.02,11.84c-4.92,6.13-12.76,8.11-17.69,13.79-4.73,5.45-10.2,10.27-10.86,19.7,9.59-6.67,17.41-14.08,27.43-17.36,15.54-5.09,26.76-15.78,37.77-27.08,12.86-13.19,26.71-25.27,42.65-34.73,1.16-.69,2.31-1.42,3.53-1.99,9.86-4.62,9.95-4.65,4.95-14.12-1.76-3.34-1.6-7.01,2.34-6.26,6.48,1.24,13.42-.46,19.44,2.77,3.27,1.76,7.47,4.47,5.52,8.66-1.9,4.08-6.85,3.74-10.82,2.73-2.48-.64-4.7-2.32-7.04-3.54Z" stroke-width="0"/>
  <path d="M176.92,159.97c10.76.76,19.49-.22,27.88,2.61-11.83,6.78-25.6,2.12-37.74,6.68-5.24-5.76-13.66-.05-19.06-5.29-2.01-1.95-4.46-.99-6.84-1.15-20.18-1.36-30.47,14.56-43.92,24.9-2.53,1.94-4.67,4.38-7.54,6.12,3.08-10.35,10.86-17.19,18.94-23.26,14.92-11.21,32.55-15,50.79-16.85,17.18-1.75,33.94-6.35,51.18-8,6.14-.59,10.78-5.04,14.45-9.82,10.44-13.6,25.52-20.27,40.04-28.08,17.01-9.15,34.6-6.53,52.12-3.96,21.37,3.14,42.52,7.86,64.26,8.09,3.15.03,6.28,1.1,9.42,1.68.05.67.09,1.35.14,2.02-7.66.78-15.3,1.77-22.98,2.31-13.65.95-27.14-1.42-40.17-4.58-35.38-8.59-66.55-1.97-93.05,23.38-14.01,13.41-31.08,18.72-49.73,20.56-1.34.13-2.69.32-4,.63-.73.17-1.39.65-4.18,2.02Z" stroke-width="0"/>
  <path d="M135.94,218.47c-6.6,19.57-16.84,36.19-36.48,45.52-11.19,5.32-22.94,5.89-34.92,4.92-2.36-.19-5.38-.59-6.83-2.1-5.69-5.96-12.93-5.97-20.53-5.81-.64-3.34,4.33-4.79,2.12-7.96-1.51-2.17-3.01-4.35-5.29-7.64,8.64,1.72,14.4,11.02,24.88,5.71-15.52-2.09-26.37-11.6-39.05-17.32-7.02-3.17-12.66-8.23-17.88-13.78-1.08-1.15-2.64-2.21-1.63-4.11.89-1.67,2.65-2.02,4.23-1.71,5.91,1.16,12.08,1.59,18.03,4.91-4.07,2.8-7.74-.33-12.03,1.86,5.84,7.17,13.94,10.29,21.45,13.91,8.02,3.88,16.47,6.86,24.77,10.14,7.89,3.11,14.81,1.28,20.95-4.32,3.54-3.23,7.15-6.39,11.12-9.93-.59,4.49-4.35,6.52-6.86,9.25-3.24,3.52-4.43,6,3.02,5.76-4.66,5.79-11.53,2.66-15.95,6.09-2.26,1.75-7.11,1.5-6.85,4.68.33,3.98,5.15,2.78,8.02,3.62,4.2,1.23,9,1.8,12.82.09,16.62-7.4,35.49-11.58,44.44-30.47,1.97-4.16,4.01-8.73,8.44-11.31Z" stroke-width="0"/>
  <path d="M151.2,196.75c-1.61-17.98,16.39-30.31,33.17-23.78-13.64,4.64-25.51,9.89-33.17,23.78Z" stroke-width="0"/>
</svg>