<?xml version="1.0" encoding="UTF-8"?>
<svg id="Layer_1" data-name="Layer 1" xmlns="http://www.w3.org/2000/svg" viewBox="0 0 405.71 245.61">
  <path d="M137.46,174.8c.56,1.65-.1,2.84-.8,3.97-.92,1.49-2.16,2.62-4.05,2.42-1.84-.2-2.22-1.69-2.66-3.19-.42-1.44-.13-4.14-2.5-3.37-2.25.74-.77,2.81-.08,4.23,4.3,8.93,6.22,18.6,8.62,28.11,1.83,7.26,2.83,14.69,10.01,19.34,2.93,1.89,2.09,5.22.7,8.17-2.74,5.81-1.98,7.01,4.27,7.08,2.49.03,4.99.08,7.48,0,2.64-.08,2.83-1.24,1.17-3.05-.34-.37-.59-.87-1-1.11-9.66-5.64-10.8-15.78-13.13-25.19-1.51-6.13-2.14-12.48-3.72-18.59-2.31-8.94,1.3-16.32,6.48-22.62,5.46-6.64,12.3-12.15,17.73-18.93.71-.89,1.72-2.64,3.17-1.32,1.02.93-.28,2.1-.75,3.11-2.82,6.04-7.76,10.32-12.27,15-9.23,9.56-13.17,20.52-8.36,33.66,1.78,4.86,3.61,9.67,6.27,14.13,1.31,2.2,2.24,4.46,1.42,7.11-.4,1.31-.57,2.83.49,3.79,4.36,3.95,5.39,10.41,10.5,13.8.92.61,2.14,1.43,1.78,2.77-.46,1.72-2.1,1.37-3.37,1.34-5.97-.13-11.98.8-17.92-.73-4.77-1.23-7.35-5.95-5.22-10.52,1.61-3.47,1.07-5.11-2.95-4.93-1.77.08-2.75-.86-3.43-2.36-.4-.88-.93-2.38-1.48-2.41-6.44-.45-3.71-2.71-1.29-5.35,2.02-2.2,1.59-5.11.85-7.64-2.81-9.57-5.95-19.05-8.75-28.63-1.01-3.45-5.66-5.33-3.79-10.07,1.57-3.97,5.63-4.4,8.29-6.78,9.14-8.2,9.83-21.12,2.2-30.75-5.79-7.32-12.16-15.01-7.9-25.51,1.9,4.53,5.51,8.4,6.74,13.49.29,1.22,1.4,1.98,2.74,1.21,1.65-.96,1.76-2.36.58-3.77-2.57-3.09-4.88-6.3-6.21-10.17-.76-2.23-1.36-4.42-1.48-6.79-.28-5.42-2.47-7.23-7.76-5.83-4.63,1.22-9.34,2.35-13.38,5.31-2.36,1.73-5.19,2.83-8.94,4.81,2.62-6.74,7.38-8.9,12.34-10.34,3.17-.92,6.43-1.48,9.57-2.68,4.29-1.63,8.79.08,9.77,4.27,3.49,14.95,14.69,22.38,27.11,28.69,4.56,2.32,8.55,5.88,13.95,6.44,1.23.13,2.29.95,1.81,2.43-.92,2.85,1.07,4.52,2.7,5.97,4.89,4.35,7.12,10.38,10.48,15.7,2.86,4.54,1.91,9.31,1.47,14.04-.35,3.76,1,5.6,4.56,7.07,13.23,5.46,25.04,13.16,34.58,23.99,1.4,1.59,3.29,2.23,5,3.21,6.15,3.52,7.11,5.28,6.19,11.98,3.1-.61,6.15-1.2,9.64-1.88-5.54-8.04-9.11-16.91-18.1-22.09-10.89-6.28-18.53-16.18-24.91-26.8-1.94-3.24-1.81-7.68-2.86-11.5-4.44-16.2-5.96-33.05-10.89-49.14-1.22-3.97-2.78-7.84-4.2-11.75-.6-1.66-1.5-3.27-1.12-5.82,3.97,3.23,5.7,7.28,6.97,11.2,2.23,6.93,4.3,13.97,4.13,21.46-.18,8.15,3.55,13.02,11.29,14.9,16.68,4.04,33.55,5.17,50.57,2.6,5.34-.8,3.81-1.04,3.05-5.95-.96-6.22-4.96-11.78-3.83-19.81,4.23,6.99,6.44,13.5,8.97,19.85.18.45.05,1.02.21,1.48.95,2.73.69,6.44,4.12,7.43,3.81,1.1,4.92-2.48,6.65-4.83,2.13-2.91,4.35-5.75,7.3-9.62.16,5.06-2.14,7.76-4.31,10.14-3.19,3.5-1.52,4.9,1.92,5.67,5.19,1.17,10.44,2.11,15.67,3.08,4.26.79,8.52,1.6,12.8,2.19,8.81,1.21,13.97,7.59,20.78,14.4-6.95-2.08-7.77,2.43-9.72,5.95-4.15,7.5-8.72,14.55-18.13,16.56-2.42.52-4.52,2.71-6.68,4.24-2.53,1.8-4.71.4-6.25-1.16-2.02-2.04-1.41-5.62-.56-7.38.91-1.88,3.38.02,3.56,2.01.27,3.14,1.37,2.57,3.42,1.48,7.31-3.87,15.38-6.54,19.93-14.35,2.21-3.81,5.06-7.76,3.05-12.02-2.07-4.39-6.8-5.56-11.51-5.73-8.21-.3-16.12-2.23-23.89-4.65-3.86-1.2-7.57-2.32-11.7-1.75-2.31.31-5-.15-6.4-2.14-2.3-3.28-4.67-2.31-7.72-1.36-9.42,2.93-19.19,2.09-28.79,1.42-8.25-.58-16.66-.88-24.62-3.73-1.63-.58-3-.15-2.51,1.67,3.33,12.49,2.54,26.49,13.63,36.14,6.91,6.02,14.14,11.62,21.52,17.03,3.2,2.34,5.67,5.11,6.95,8.89.49,1.44,1.02,2.96,2.39,3.7,6.43,3.45,9.11,10.52,14.56,14.92,1,.81,2.16,1.89,1.64,3.38-.53,1.54-2.12,1.31-3.41,1.53-5.8.99-11.53.68-17.39.1-5.95-.59-9.19-3.72-11.58-8.62-.71-1.45-.23-2.57.48-3.73,1.77-2.92.63-4.36-2.43-4.74-3.06-.38-5.75-1.92-6.75-4.58-3.76-9.95-13.01-13.32-21.01-18.22-1.98-1.21-4.05-2.32-6.2-3.2-9.09-3.72-13.9-9.78-12.07-20.14.65-3.71-1.36-6.91-3.21-10.22-6.24-11.15-15.09-18.77-27.43-22.33-2.23-.64-4.22-1.91-5.96-3.56-1.28-1.22-2.83-3.11-4.65-1.43-1.74,1.59-3.96,3.4-3.04,6.36.59,1.9,1.03,4.07,2.25,5.52,5.68,6.74,1.71,13.13-.49,19.53-.77,2.25-4.38,4.77,1.68,4.71,2.2-.02,1.23,1.97.31,2.88-1.64,1.63-3.54,3-5.23,4.58-1.19,1.11-2.94,2.53-1.67,4.17,1.34,1.72,2.09-1.84,3.97-.91Z" stroke-width="0"/>
  <path d="M371.97,162.48c-.3-1.75-1.55-2.88-2.6-4.17-1.56-1.94-3.64-3.78-4.37-6.02-3.61-11.14-11.18-17.12-22.34-20.41-4.91-1.45-10.14-4.64-13.87-9.57,2.66-.72,4.03.89,5.33,1.85,4.55,3.36,9.57,4.69,15.11,5.8,6.52,1.3,11.5,5.86,13.57,12.57.81,2.64,1.96,4.92,3.77,6.92,3.46,3.82,6.88,7.69,10.47,11.38,4.42,4.55,8.78,8.98,10.52,15.46.99,3.67,3.48,6.63,6.31,9.41,4.61,4.53,5.83,11.12,8.84,16.66,1.1,2.02,4.24,4.22,2.49,6.51-1.63,2.12-5.13.95-7.52.48-4.69-.93-9.23-2.66-13.77-4.24-1.63-.57-3.05-1.89-2.22-3.84.89-2.08,2.7-1.51,4.28-.78,3.63,1.66,7.21,3.43,10.87,5.04.98.43,2.33,1.14,3.15-.15.6-.95-.39-1.85-.82-2.72-3.15-6.47-4.91-7.02-15.33-4.81-1.99.42-4.11,2.22-5.88-.28-1.45-2.05-.06-3.79.94-5.5,1.29-2.2.64-3.87-1.5-4.94-1.92-.96-3.9-1.89-5.95-2.49-3.24-.95-4.68-2.59-3.99-6.2.95-4.96.24-9.58-4.04-13.07-1.14-.93-2.3-2.09-2.89-3.4-4.65-10.32-14.83-13.27-23.71-17.93-1.1-.58-2.56-1.53-3.69-.43-1.1,1.07-.18,2.57.16,3.77.87,3.03,2.08,5.97,2.91,9.01.4,1.46.13,3.47-1.4,3.9-2.19.61-1.86-1.76-2.33-2.98-.47-1.23-.85-2.56-.94-3.87-.36-5.48-3.15-8.19-8.64-9.07-5.64-.91-9.35-5.63-13.76-8.76-4.48-3.18-9.64-5.32-13.68-9.1-1.59-1.48-3.51-1.27-6.46-.27,3.44-4.05,5.7-5.17,8.97-1.65,2.49,2.68,5.65,3.22,8.76.2,1.1-1.07,2.42-2.35,4.48-2.17.05.45.26.95.13,1.33-.76,2.23-5.3,2.52-3.69,5.6,1.85,3.54,4.87,6.3,9.23,6.96,2.46.37,4.87,1.24,7.33,1.42,18.9,1.34,33,12.02,46.61,23.7.38.32.83.56,1.24.84-.61,2.45-3.14-.43-4.11,1.61,2.07,2.95,3.07,6.4,3.83,9.97.52,2.43,1.55,4.75,3.24,6.63,1.92,2.13,4.39,2.11,6.85,1.1,1.89-.78,2.25-2.43,1.52-4.14-2.54-5.97-5.61-11.58-11.39-15.12Z" stroke-width="0"/>
  <path d="M311.14,21.95c-13.14,8.04-21.31,21.05-34.36,27.88-9.85,5.15-20.21,9.1-28.82,16.61-3.81,3.33-9.78,2.76-14.77,3.84-17.54,3.78-34.67,1.12-51.65-3.87-5.8-1.71-11.9-.77-17.88-.51-1.62.07-3.23.9-4.9.1,4.32-3.42,12.91-4.82,21.95-3.07,13.39,2.6,26.67,5.53,40.49,4.71,6.99-.42,13.91-1.23,20.84-2.12,3.17-.41,5.49-2.34,7.78-4.24,8.31-6.92,17.59-11.97,28.03-14.8,2.25-.61,3.76-2.07,5.25-3.63,7.23-7.61,14.69-14.94,23.59-20.63.94-.6,1.74-1.65,4.44-.25Z" stroke-width="0"/>
  <path d="M329.26,169.07c0,3.27-1.98,5.32-3.41,7.28-5.16,7.1-7.75,15.8-14.4,22.01-3.62,3.38-7.9,4.37-11.92,3.33-5.65-1.46-11.22-1.2-16.82-1.18-4.92.02-9.5-1.01-14.11-2.56-3.11-1.05-2.68-2.61-1.1-4.35,3.24-3.6,7.07-6.54,11.16-9.13,1.47-.93,3.17-1.27,4.73-.27,1.82,1.17,1.13,2.88.71,4.5-.33,1.29-.72,2.57-.88,3.88-.58,4.83.15,5.39,4.82,4.24,3.12-.77,6.22-.65,9.31.45,7.07,2.51,10.31,1.55,14.48-4.59,4.49-6.59,8.71-13.36,13.1-20.02.97-1.47,1.94-3.04,4.34-3.59Z" stroke-width="0"/>
  <path d="M80.86,129.54c-7.35,17.09-16.57,32.37-36.85,36.36-12.98,2.56-23.96-1.4-33.38-10.32-.89-.84-2.53-1.95-1.42-3.27,1.28-1.52,2.71-.1,3.89.76,2.01,1.47,3.79,3.4,6.01,4.38,1.94.86,4.18,4.57,6.65.39.16-.28,1.56.1,2.36.28,21.59,4.85,31.36,1.27,44.85-18.17,2.49-3.59,3.97-7.92,7.89-10.42Z" stroke-width="0"/>
  <path d="M380.88,64.38c-3.05.92-5.4.06-7.23-2.1-5.5-6.51-12.96-8.81-21.01-9.68-3.12-.34-6.32.09-9.3-1.32-1.96-.93-3.48-.06-4.92,1.31-1.39,1.33-2.32,3.24-4.31,3.91-.33-.44-.72-.81-.67-.9,2.77-4.56,3.78-8.97-.64-13.23-.82-.79-.92-2.26-.41-3.33,2.39-4.99,1.78-9.97.38-15.07-.72-2.64-.02-5.19,1.91-7.92,1.06,1.78-3.11,6.97,3.06,4.6,1.18-.45,1.17,2.05,1.19,3.29.06,4.49-.04,8.99.03,13.48.1,6.84,4.67,12.08,11.47,11.76,8.04-.38,14.93,2.78,22.1,5.33,1.28.46,2.58,1,2.75,2.57.37,3.5,2.16,5.85,5.59,7.31Z" stroke-width="0"/>
  <path d="M343.99,8.48c10.35,4.13,19.1,10.74,27.44,17.93,5.8,4.99,11.55,10.04,17.15,15.25,3.96,3.69,2.68,8.97,3.67,13.58,1.09,5.09-1.39,7.74-5.49,9.94-.95-1.69.38-2.31,1.07-2.98,2.15-2.07,1.96-4.2.1-6.15-2.65-2.78-3.81-5.45-.58-8.58,1.04-1.01.74-2.05-.32-2.99-6.21-5.54-12.33-11.18-18.64-16.6-1.49-1.28-4.26-4.01-4.16,1.31.05,2.3-1.77,1.64-2.9,1.3-1.97-.6-4.86-.06-5.52-2.54-.46-1.75,1.74-2.05,3.16-2.43.93-.24,1.87-.44,2.86-.66-.16-2.27-1.88-2.88-3.2-3.72-2.08-1.32-4.5.91-6.22-.08-.93-.54.73-3.43-1.57-4.7-1.87-1.04-3.47-2.57-5.16-3.93-1.27-1.02-1.62-2.47-1.69-4.01l-.04.05Z" stroke-width="0"/>
  <path d="M344.02,8.44c-4.36-.22-9,1.6-13-2.09.63,3.08,3.26,3.41,5.21,4.56.74.44,1.39,1.01,1.14,1.97-.2.79-.95,1.02-1.58.73-5.49-2.53-9.93.68-14.65,2.53-1.27.5-2.66,1.56-4.46.02,2.12-2.95,5.45-3.45,8.47-4.48,1.53-.52,3.89-.59,3.68-2.62-.23-2.28-2.73-2.81-4.65-2.99-4.29-.4-8.61-.4-12.91-.7-1.52-.11-3.93.27-3.88-1.92.04-1.6,2.38-1.49,3.75-1.65,5.34-.62,10.77-1.2,16.01-1.64,6.13-.51,14.15-.25,16.82,8.33,0,0,.04-.05.04-.05Z" stroke-width="0"/>
  <path d="M328.19,66.73c-.78,8.35-4.11,15.95-6.68,23.76-2.08,6.32-5.82,11.57-10.76,15.96-1.88,1.67-2.81,3.6-2.81,6.11,0,3.06-.79,5.94-2.44,8.53-.53.82-1.2,1.82-2.36,1.39-1.25-.46-1.06-1.69-.64-2.54,2.99-6.04,3.52-13.06,8.46-18.41,5.25-5.69,7.87-13.03,10.13-20.39,1.59-5.16,3.12-10.36,7.11-14.4Z" stroke-width="0"/>
  <path d="M302.02,108.75c0,1.7.07,2.21-.01,2.7-.38,2.27-.68,5.77-3.13,5.42-2.95-.42-1.87-3.88-1.17-5.87,4.41-12.58-3.17-21.66-8.91-31.27-1.19-1.99-2.72-3.77-4.04-5.68-.54-.78-1.5-1.75-.72-2.64,1.07-1.23,2.23-.14,3.02.56,4.67,4.13,7.86,9.37,10.87,14.73,4.07,7.27,1.94,15.65,4.1,22.05Z" stroke-width="0"/>
  <path d="M146.95,70.94c-3.06,2.39-6.19,4.7-9.17,7.2-3.7,3.11-6.1,9.1-9.56,10.25-3.68,1.23-8.37,1.61-12.58,2.7-1.6.41-3.85,2.07-4.72-.43-.67-1.93,1.73-2.51,3.19-3.14,2.58-1.12,5.2-2.19,7.87-3.07,3.98-1.31,7.66-2.77,10.27-6.48,2.12-3.03,8.9-6.29,14.7-7.04Z" stroke-width="0"/>
  <path d="M23.51,139.66c-7.87-1.47-15.07-4.74-22.06-8.56-.84-.46-1.89-1.25-1.26-2.36.85-1.51,2.42-.97,3.57-.48,5.95,2.54,11.87,5.11,18.28,6.44,2.75.57,5.34,1.83,8.27,1.08.9-.23,2.21-.4,2.52.83.33,1.3-.96,1.56-1.87,1.84-2.4.73-4.85,1.16-7.45,1.21Z" stroke-width="0"/>
  <path d="M45.32,138.07c-6.48,8.35-15,11.73-25.29,10.1-3.44-.55-6.2-2.32-7.64-5.67-.41-.95-.4-2.06.53-2.71.86-.6,1.45.22,2.1.75,7.27,5.92,14.55,6.58,22.67,2.03,2.58-1.44,5.09-2.99,7.64-4.49Z" stroke-width="0"/>
</svg>