<?xml version="1.0" encoding="UTF-8"?>
<svg id="Layer_1" data-name="Layer 1" xmlns="http://www.w3.org/2000/svg" viewBox="0 0 400.55 224.37">
  <path d="M76.22,72.45c10.84-5.59,22.01-10.19,34.34-11.21,1.53-.13,2.94-.81,3.98-1.93,8.36-9.05,19.74-10.29,30.91-11.79,9.37-1.26,18.54,1.33,27.77,2.46,18.11,2.23,36.2,2.62,54.2-.77,5.85-1.1,10.6-4.82,15.42-8.03,5.99-3.99,12.28-6.54,19.52-6.85,3.35-.14,6.48-1.37,9.56-2.72,14.45-6.37,28.54-13.59,43.83-17.9,8.04-2.27,16.13-4.39,24.56-3.38,3.2.38,6.51-3.94,9.59.52-1.54-4.44-5.43-5.18-8.78-4.86-6.75.65-12.75-2-19.07-3.19-2.74-.51-5.42-1.28-8.15-1.94.17-.35.32-.87.42-.86,9.43,1.2,18.9.23,28.32.61,4.78.2,10.51-.07,14.11,4.57,1.78,2.3,2.31,3.52-.67,6.66-5.96,6.29-12.8,2.55-18.4,2.36-7.04-.23-13.03,1.81-19.36,3.29-13.56,3.18-25.77,9.79-38.4,15.4-8.17,3.62-16.98,5.8-25.57,8.44-1.79.55-3.5,1.03-4.85,2.35-7.51,7.4-17.03,9.23-27.04,10.81-18.02,2.84-35.77,1.74-53.7-.66-8.76-1.17-17.69-3.06-26.7-.61-10.04,2.73-19.6,6.71-27.95,12.71-4.66,3.35-5.32,9.85-5.78,15.49-.62,7.55,1.5,14.58,6.09,20.65,6.77,8.97,6.96,17.98,3.34,28.64-1.87,5.51-4.96,9.76-7.54,14.55-1.02,1.91-2.27,3.12-5.01,3.25-3.98.19-7.49,2.54-10.85,4.71-1.95,1.25-1.53,3.02-.86,4.89,4.55,12.67,9.01,25.37,13.6,38.03,1.04,2.86,3.65,5.04,2.83,8.71-.33,1.48,1.99,2.03,3.37,2.44,4.08,1.22,6.8,3.47,6.75,8.09-.03,2.55,1.15,2.84,3.16,1.75,1.29-.7,2.52-1.67,4.2-1.39.99,1.81-3.88,1.86-1.26,4.08.98.83,8.25.58,8.74-.22.46-.75-.06-1.25-.46-1.76-1.06-1.33-2.44-2.2-3.96-2.95-4.43-2.19-8.03-4.74-8.76-10.5-.52-4.09-4.27-7.03-6.63-10.43-4.29-6.16-7.62-13.15-7.25-20.33.42-7.96,4.95-15.18,10.73-20.81,6.19-6.02,13.14-11.25,19.67-16.92,3.83-3.32,6.7-7.4,8.79-12.02,1.94-4.27,4.51-8.07,7.51-11.72,5.54-6.74,9.29-14.45,9.98-24.74,3.64,5.1,2.9,9.1,1.88,13.07-.28,1.11-1.08,2.07-1.49,3.16-1.88,5.01-1.04,6.03,4.17,5.32,2.3-.31,4.63-.48,6.95-.55,1.11-.03,2.71-.09,2.88,1.34.18,1.58-1.48,1.45-2.54,1.73-2.97.78-6.14,1.01-8.99,2.81,1.78,2.29,4.13,2.17,6.11,2.73,13.92,3.91,27.72,7.41,42.5,7.89,12.85.41,25.18-1.08,37.64-3.1,1.37-.22,3.48.07,3.73-1.81.27-2.13-1.95-2.27-3.36-3.06-2.6-1.46-5.44-1.36-8.25-1.63-1.45-.14-3.51-.38-3.2-2.3.3-1.93,2.17-.74,3.36-.68.99.05,1.99.24,2.96.47,3.12.74,4.41-.1,3.63-3.55-1.32-5.8-1.24-11.88-4.18-18,3.57.26,4.61,2.3,4.97,4.5,1.71,10.52,9.25,17.86,14.28,26.57,1.43,2.48,3.93,2.15,6.26,1.98,2.19-.16,3.06-1.63,3.51-3.61,2.22-9.55,7.58-16.38,17.03-19.76,2.74-.98,3.11-3.67,3.69-6.12,2.45-10.38-1.59-18.64-8.76-25.66-5.3-5.19-10.93-10.06-16.78-15.41,2.32-.97,3.05.8,4.22,1.3,1.58.67,3.25,3.75,4.37-.82.54-2.18,2.6,0,3.45.81,5.45,5.17,10.02,11.09,14.01,17.46,1.58,2.52,3.14,5.05,5.17,8.31,3.27-5.65,7.68-9.63,11.49-14.1,7.21-8.46,16.79-12.88,26.6-17.09,1.35-.58,3.14-.55,2.92-2.69-.14-1.42-.58-2.45-2.44-2.49-2.25-.04-2.28-2.15-2.57-3.7-.34-1.81,1.07-2,2.39-2.87,3.88-2.56,4.8-6.96,4.55-11.37-.15-2.69-.59-5.27,1.48-8.14.77,1.57-.55,5.12,3.26,3.16,1.8-.92,1.25,1.55,1.14,2.7-.53,5.46-2.63,10.64-2.37,16.27.33,7.04,3.8,11.25,10.81,11.93,8,.78,14.1,5.64,20.75,9.33.94.52,1.49,1.44,1.44,2.48-.17,3.13,1.49,5.29,4.68,7.61-4.09.82-5.72-.96-7.2-3.2-4.53-6.85-11.04-10.68-18.97-12.33-1.63-.34-3.37-.42-4.88-1.04-11.22-4.67-20.7-1.24-29.17,6.33-8.08,7.22-14.98,15.61-22.42,23.47-.94,1-1.66,2.15-1.68,3.54-.11,6.19-.63,12.3-2.77,18.19-.5,1.38.29,2.55,1.19,3.62,6.65,7.83,14.27,14.2,23.97,18.2,7.51,3.1,10.92,10.49,15.28,16.86-4.1-1.2-7.51-3.46-9.65-6.86-2.64-4.19-6.28-6.96-10.65-8.67-10.17-3.99-16.93-12.06-24.21-19.56-1.81-1.87-.99-4.46-2.16-6.72-7.98,4.16-11.19,12.02-15.27,19.09-1.36,2.35,1.02,3.15,2.62,3.92,8,3.82,16.44,6.39,24.92,8.88,5.98,1.76,11.61,3.52,16.89,7.68,6.26,4.93,12.77,9.48,17.94,15.59,1.89,2.24,3.63,4.15,3.73,7.99.1,4,2.87,8.43,6.59,11.25,1.44,1.09,3.41,1.94,5.06.41,1.92-1.78.25-3.32-.79-4.77-3.4-4.74-6.88-9.41-10.2-14.2-.99-1.43-2.5-2.76-2.1-4.76.67-.72,1.29-.53,1.82-.04,12.8,11.86,21.17,26.75,28.84,42.12.47.94,1.74,2.13.21,2.96-1.22.67-2.26-.51-2.82-1.49-1.42-2.44-2.64-5-3.98-7.5-.7-1.31-1.26-2.77-2.25-3.83-4.14-4.42-7.82-3.8-10.61,1.57-1.03,1.97.11,3.16,1.33,4.33,2.23,2.15,5.12,3.03,7.94,4.07,1.6.59,3.77.28,4.5,2.5-9.03,2.97-18.95-4.7-17.2-13.38.37-1.82-.07-2.28-1.66-2.76-2.06-.61-3.98-1.71-6.02-2.38-3.44-1.13-5.08-3.88-4.38-6.94,1.26-5.52-1.54-9.61-4.35-13.27-6.85-8.93-15.25-16.19-25.99-20.28-.93-.35-1.89-.68-2.87-.81-1.29-.17-2.9-.72-3.75.52-1.01,1.46-.04,3.03,1.01,4.03,3.9,3.71,5.08,8.91,7.64,13.35.33.57.7,1.21.75,1.84.99,14.07,12.67,20.64,20.8,29.69.22.24.62.35.78.62,6.87,11.69,19.92,15.64,29.69,23.7,2.38,1.96.61,2.93-.73,3.69-4.04,2.3-8.04,4.8-13.04,4.42-1.65-.13-3.34.03-4.98.24-6.66.85-9.35-1.12-10.31-7.97-.29-2.04-.17-4.36-2.63-4.82-8.57-1.58-12.8-7.35-15.81-14.94-4.31-10.82-12.55-19.15-18.97-28.64-7.95-11.76-18.65-21.26-26.47-33.1-2.06-3.12-6.59-3.78-8.05-7.83-.45-1.27-2.46-.38-3.67.05-17.48,6.28-35.46,7.44-53.71,4.92-10.56-1.46-20.7-4.86-31.06-7.3-4.7-1.11-9.32-2.56-13.93-3.99-3.25-1.01-5.73-.14-7.02,2.92-5.62,13.3-16.51,21.72-27.2,30.59-10.34,8.58-16.81,22.74-11.92,34.05,1.28,2.96,2.95,5.56,5.09,7.93,3.45,3.8,7.38,7.24,8.69,12.59.5,2.04,2.66,2.86,4.31,3.97,4.28,2.88,8.54,5.79,12.82,8.68.82.55,1.94.97,1.79,2.15-.18,1.4-1.49,1.72-2.62,1.94-8.59,1.69-17.2,2.03-25.79.08-2.78-.63-4.11-2-2.12-4.98,2.14-3.21,1.53-5.37-2.77-5.52-1.96-.07-3.86-.94-5.89.01-1.56.73-2.96-.36-2.92-1.72.06-2.16-4.33-2.59-1.92-5.3,2.39-2.69,1.63-5.47.68-8.42-3.49-10.79-7.83-21.24-12.39-31.6-1.35-3.07-2.37-6.17-1.95-9.65.56-4.72,2.52-8.13,7.32-9.68,2.43-.78,5.13-1.54,6.52-5.38-5.84,3.32-11.44,5.08-15.88,9.3-6.16,5.84-14.12,9.35-20.24,15.37-5.18,5.09-9.37,10.79-12.43,17.33-1.38,2.95-3.23,5.21-6.1,6.98-7.45,4.6-11.54,5.34-18-.49-5.59-5.05-12.64-7.07-18.49-11.36-4.56-3.34-4.68-4.53.21-7.49,6.27-3.8,13.06-3.42,19.89-2.76,2.14.21,3.5,1.53,4.3,3.66,1.58,4.23,4.55,4.67,7.51,1.13,6.52-7.79,12.63-15.9,17.2-25.03,2.31-4.63,5.91-8.49,7.66-13.44.71-2.01,2.47-2.44,4.42-2.63,6.21-.61,11.5-3.16,15.79-7.73.8-.85,1.55-1.81,2.51-2.43,7.07-4.62,8.86-11.2,8.45-19.35-.37-7.43,2.38-14.76,1.73-22.34-.46-5.25-2.33-6.72-7.48-5.23-3.07.89-5.98,2.55-9.31,0-.94-.72-3.55.31-5.18,1.03-3.77,1.66-3.58-.3-2.94-2.9l-.07.06ZM25.03,175.91c-.58,4.7,1.66,7.57,6.01,7.92,1.5.12,2.88.15,4.29.88,6.72,3.48,9.95,2.74,14.44-3.28,5.26-7.06,10.36-14.17,16.28-20.78,10.22-11.39,22.06-19.47,37.21-22.33,2.12-.4,3.67-1.42,4.7-3.32,1.43-2.63,3.02-5.18,4.36-7.86,4.88-9.72,1.31-21.88-8.98-28.69,0,3.57-.19,6.67.04,9.75.38,5.13-1.43,9.33-5.59,12.09-5.19,3.43-9.44,7.84-13.9,12.05-1.11,1.05-2.4,1.75-3.87,2.19-2.77.82-4.35,2.5-5.04,5.52-.86,3.71,2.97,2.76,4.07,4.36-1.51,2.43-3.88,2.16-5.92,2.52-3.61.64-5.3-.51-3.53-4.33.94-2.02,1.94-4.02,3.19-6.59-2.91,1.94-2.89,1.96-3.56,3.19-7.34,13.45-15.27,26.48-26.19,37.42-1.05,1.05-2.2,2.07-3.48,2.8-4.03,2.3-6.73.99-7.28-3.63-.3-2.51-.7-4.77-3.67-5.09-4.71-.49-9.27.29-13.61,2.19-2.41,1.06-1.92,2.03-.06,3.43,3.41,2.56,6.67,2.36,10.1-.42ZM287.56,145.61c.51-2.66-.75-4.23-.96-6.01-.13-1.11-.7-2.61.75-3.01,1.58-.44,1.53,1.3,2.05,2.25,1.71,3.1,2.02,7.35,6.19,8.49,2.82.77,3.59,2.51,3.64,5.11.09,4.31,1.14,8.16,5.23,10.58,1.09.64,1.82,2.26,3.35,1.46,1.69-.89,1.3-2.56.85-3.98-.45-1.41-.79-3.16-1.8-4.03-4.71-4.04-6.08-9.78-8.15-15.16-.81-2.09-1.69-3.95-3.97-4.79-4.52-1.66-9.02-3.35-13.52-5.05-1.41-.53-2.57-.4-3.49.92-.81,1.16-.61,2.25.32,3.14,3.19,3.07,5.31,7.17,9.5,10.08ZM310.34,169.11c-1.26.21-1.83,1.02-1.21,2.1.64,1.13,1.63,2.07,2.49,3.07,5.16,6.05,11.13,11.79,12.71,19.86.74,3.79,2.97,5.72,5.26,7.99,1.03,1.01,2.36,1.23,3.66.4,1.44-.92,1.81-2.26,1.5-3.89-.46-2.41-1.87-4.21-3.57-5.85-6.81-6.58-13.7-13.1-18.2-21.63-.54-1.03-1.3-1.95-2.65-2.05ZM342.05,213c2.92-6.79,2.42-8.14-3.11-9.94-.96-.31-2.01-.78-2.63.35-.51.92.34,1.57,1,2.03,3,2.08,3.39,4.56,1.68,7.76-.98,1.85.07,3.62,2.07,3.53,3.95-.19,7.99,0,11.84-1.26.89-.29,2.16-.62,1.99-1.83-.09-.62-1.02-1.16-1.64-1.66-3.74-3-7.34-1.43-11.21,1.03Z" stroke-width="0"/>
  <path d="M364.61,25.91c4.45-4.51.02-5.59-1.67-7.71-1.24-1.56-4.6-2.92-2.87-5.05,1.99-2.44,3.66.88,5.18,1.97,10.65,7.67,18.88,17.68,26.77,28,.71.92,1.24,2.13,2.16,2.72,8.05,5.15,6.38,13.06,5.9,20.58-.18,2.78-1.73,4.87-5.55,6.92,2.75-4.92,1.99-8.49-.18-12.02-1.09-1.77-.76-2.94,1.67-1.79.16-2.19,2.35-4.23.45-6.58-7.52-9.27-14.66-18.86-23.99-26.52-2.37-1.95-4.63-2.11-7.87-.53Z" stroke-width="0"/>
  <path d="M76.28,72.4c-6.86,3.4-13.2,7.58-19.04,12.54-.38.32-.68.74-1.08,1.04-2.42,1.79-5.24,5.57-7.85,3.09-2.45-2.33.56-5.93,2.48-8.3,6.26-7.76,14.94-10.79,24.53-11.46,3.51-.24,1.44,1.84.89,3.15,0,0,.07-.06.07-.06Z" stroke-width="0"/>
  <path d="M39.29,147.23C21.13,152.43.28,141.85,0,126.84c3.31,3.57,6.52,7.24,9.95,10.69,3.48,3.51,7.35,5.84,12.81,5.38,5.53-.46,10.56,2.23,16.53,4.31Z" stroke-width="0"/>
  <path d="M117.87,99.31c7.65,3.13,9.68,12.39,18.33,12.5-6.09,5.92-13.21,1.12-18.33-12.5Z" stroke-width="0"/>
</svg>