<?xml version="1.0" encoding="UTF-8"?>
<svg id="Layer_1" data-name="Layer 1" xmlns="http://www.w3.org/2000/svg" viewBox="0 0 489 272">
  <path d="M105.46,104.81c6.39-1.55,11.87-3.63,17.49-4.08,8.61-.7,16.05-4.25,23.19-8.3,14.67-8.32,29.87-13.84,47.03-11.63,16.81,2.17,33.62,4.33,50.38,6.85,5.87.88,11.18-1.45,16.78-1.67,11.12-.43,20.23-5.76,29.85-11.77-5.98-2.98-12-2.41-17.81-2.68-1.86-.09-3.53.16-5.08-1.24-2.04-1.84-2.18-3.5.46-4.51,5.02-1.92,9.88-5.29,15.67-2.38,1.08.54,2.18.39,3.32-.23,8.38-4.53,17.1-8.05,26.67-9.18,4.08-.48,8.24,2.08,12.23-.44.2-.13.7-.02.92.16,2.76,2.16,2.67,1.99,5.77.44,9.49-4.75,18.9-9.73,29.51-11.67.94-.17,1.84-.57,3.39-1.06-8.55-6.65-16.81-7.56-26.32-.5,3.47-7.26,11.21-10.49,17.29-8.1,5.25,2.06,10.32,4.56,15.45,6.93,1.38.64,2.91,1.7,4.23,1.04,2.76-1.38,4.67.25,6.95,1.27-1-2.68-2.9-3.98-5.65-4.57-2.35-.5-5.08-1.93-4.27-4.54.98-3.17,4.28-2.27,6.35-1.13,2.92,1.61,7.17.25,9.03,4.15.89,1.87,3.7,4.37,1.85,5.54-2.5,1.58-3.78,5.58-7.44,4.87-10.43-2.04-20.55.31-30.69,1.97-9.64,1.58-17.56,7.12-25.42,12.38-10.14,6.79-20.82,12.29-32.16,16.82-8.3,3.32-15.9,8.25-24.81,10.27-10.11,2.29-20.14,4.27-30.6,2.65-4.75-.74-9.61-.74-14.43-1.05-7.36-.48-14.23-3.07-21.33-4.73-6.67-1.56-13.63-.97-20.41-.47-10.4.77-20.24,3.86-29.4,8.95-2.08,1.15-4.01,2.61-4.8,4.91-3.33,9.71-5.55,19.28-1.55,29.65,4.73,12.29,2.08,20.77-8.03,29.1-2.86,2.35-2.02,2.95,1.9,3.37-4.76,3.41-8.73,6.35-12.8,9.15-4.66,3.21-10.61,5.1-11.15,12.42-3.3-6.86,2.68-9.3,5.46-13.26-4.36-.59-5.97.3-7.97,4.77-3.06,6.84-5.85,13.8-8.93,20.62-1.57,3.48-3.26,6.97-5.39,10.12-3.02,4.48-5.86,9.28-12.24,9.98-1.79.2-3.42,1.96-5.09,3.05-2.01,1.31-4.1,2.09-6.59,1.76-1.38-.19-2.96-2.67-3.81-.9-1.17,2.44-2.99,5.23-2.09,8.03,1.05,3.3,3.4,2.06,4.94.28,2.04-2.35,4.45-3.67,7.45-3.17,7.59,1.27,11.93-3.1,16.18-8.41,5.93-7.4,12.25-14.48,18.49-21.62,1.61-1.84,3.32-3.68,6.5-4.03-3.47,4.81-6.78,9.75-10.45,14.41-4.54,5.77-8.64,11.81-12.48,18.05-3.31,5.38-7.79,9.44-13.81,11.72-1.94.74-2.91.68-3.76-1.49-1.3-3.31-3.4-3.32-6.29-1.34-5.09,3.49-11.25,2.37-16.94,3.29-.68.11-1.47-.34-1.39-1.08.15-1.51,1.42-2.49,2.65-2.68,5.15-.78,6.54-4.54,7.35-8.82.25-1.35,1.75-3.04-.03-4.01-1.34-.73-2.3.99-3.16,1.91-2.85,3.03-5.59,6.17-8.42,9.21-.86.92-1.85,2.57-3.22,1.55-1.67-1.24-.26-2.68.58-3.87,3.98-5.65,8.99-10.25,14.61-14.21,2.79-1.96,5.36-1.59,7.54.92,1.2,1.39,2.75,2.85,4.09,1.17,4.07-5.12,9.96-7.48,15.26-11.02-3.82.49-7.81-.51-11.22,1.6-3.29,2.05-6.64,1.96-10.1,1.07-4.73-1.2-9.41-2.29-14.14-.04-.96.46-2.05.43-2.73-.48-.87-1.15-.39-2.26.62-3.05,6.16-4.85,9.75-12.21,16.56-16.51,4.63-2.92,6.89-3.26,10.85.63,1.75,1.72,2.38,1.26,3.8-.38,8.45-9.76,14.65-20.84,19.88-32.55,3.31-7.41,8.85-11.61,17.24-12.31,5.1-.42,10.11-2.01,15.17-3,3.37-.66,4.4-2.53,3.41-5.79-1.01-3.34-1.68-6.79-2.79-10.1-2.31-6.88-1.38-13.45,1.4-19.94.45-1.05,1.24-2.23.4-3.28-.97-1.21-2.17-.17-3.2.18-2.36.81-4.74,1.62-6.99,2.68-3.85,1.82-7.57,2.9-12.01,1.83-3.73-.89-7.58.47-11.26,1.54-1.53.45-2.94,1.43-5.52,0ZM105.67,181.15c-2.1-.19-2.69.96-3.45,1.77-3.18,3.38-6.26,6.86-9.51,10.19-3.49,3.57-4.85,3.34-7.32-.93-3.17-5.49-5.56-5.83-10.31-1.38-1.69,1.58-3.41,3.18-4.81,5.01-.79,1.04-2.94,2.28-1.57,3.62,1.33,1.31,3.69,1.49,5.66.94,1.63-.46,2.4-1.7,1.77-3.49-.43-1.23-1.23-2.91.87-3.03,1.86-.11,1.71,1.68,1.47,3.01-.68,3.74.88,4.58,4.16,3.33,4.08-1.55,8.29-2.32,12.66-2.17,2.27.08,4.32-.27,5.45-2.6,2.18-4.46,3.96-9.04,4.92-14.25ZM291.03,65.08c6.72,5.51,10.86,6.05,17.83,2.47,3.54-1.82,7.02-3.77,10.41-5.87,1.45-.9,4.15-1.57,3.55-3.57-.71-2.38-3.58-2.31-5.61-1.91-3.7.73-7.26,2.13-10.59,1.94-2.78,7.91-10.17,4.56-15.6,6.93ZM146.16,140.32c-2.96,1.04-5.48,3.16-8.65,3.26-5.88.18-9.51,4.79-14.24,7.21-1.45.74-2.34,2.72-3.27,4.26-.48.81-.5,2.6.7,2.29,3.28-.84,6.41-2.38,9.55.32.12.1.83-.44,1.23-.73,6.1-4.4,10.7-10.15,14.69-16.6ZM106.59,175.03c1.83-5.94,5.76-9.82,6.99-15.11,1.37-5.89,3.47-11.13,10.18-12.76.97-.24,2.45.31,2.78-1.37-6.13-1.28-8.91-.48-11.04,3.79-3.33,6.69-6.41,13.5-9.52,20.3-.53,1.15-1.17,2.45.61,5.15Z" stroke-width="0"/>
  <path d="M320.98,162.99c.49,2.15,1.97,3.26,3.9,4.19,12.43,6,25.23,11.4,37.04,18.44,7.14,4.25,14.4,8.22,21.65,12.24,4.92,2.72,11.31,1.37,15.63,5.74.78.79,2.15.96,2.56,2.28-1.2,1.07-2.37-1.36-3.83.29,2.94,2.38,6.03,4.3,9.9,4.65,2.45.22,3.92,1.47,4.76,3.75,2.26,6.14,5.14,8.13,11.71,8.31,1.63.04,3.33-.37,4.88.56-5.94,5.25-17.32,2.47-19.91-4.95-.62-1.78-1.11-2.95-3.31-2.82-2.61.15-4.96-1.01-6.84-2.67-5.81-5.12-12.79-8.42-19.16-12.65-4.15-2.76-9.57-2.77-13.43-6.3-11.28-10.3-26.06-14.46-38.86-22.09-4.28-2.55-8.11-5.71-13.37-5.93-.62-.03-1.45-.3-1.81-.76-5.2-6.61-10.89-3.39-16.54-.88-2.66,1.18-3.42,3.63-3.56,6.16-.21,3.81-.05,7.63-.05,11.5,1.56.89,1.94-1.68,3.57-1.09.03.31.27.87.09,1.13-5.25,7.44-5.16,15.89-4.36,24.34.9,9.59-3.43,17.76-6.4,26.33-.27.77-1.13,1.64-1.93,1.23-3.41-1.74-3.21,1.23-3.56,2.84-.64,2.96.95,5.16,3.31,6.72,2.21,1.46,3.38-.5,4.53-1.79,1.93-2.16,3.29-4.69,3.2-7.67-.36-12.39,1.85-24.17,7.8-35.16.68-1.25.74-2.82,1.07-4.15-1.55-1.13-1.98,1.72-3.1.61-.96-.95-.34-2.25.19-3.27,3.56-6.96,7.12-13.93,10.79-20.83.57-1.07,1.33-2.87,2.84-2.25,1.67.69.71,2.41.18,3.48-3.71,7.48-7.14,14.9-6.89,23.67.08,2.84-2.03,5.98-3.72,8.6-5.45,8.44-6.09,17.73-5.43,27.32.02.33.22.68.15.98-3.34,14.34,8.99,18.08,16.84,24.81.98.84,2.64,1.12,2.43,2.76-.21,1.61-1.72,2.24-3.03,1.97-8.17-1.72-16.27.83-24.41.28-5.68-.38-6.14-1-4.26-6.27,1.42-3.99,1.02-7.53-2.46-10.36-5.33-4.34-7.1-9.36-3.24-15.69,1.37-2.26,2.14-4.88,3.28-7.28,3.79-7.97,7.87-15.79,5.27-25.2-.74-2.69-.01-5.64,1.47-8.21,2.71-4.69-.41-9.9,1.29-14.7.32-.91.16-1.99.29-2.98.85-6.49.86-6.29-5.44-6.26-11.77.05-23.5,1.78-35.31-.61-12.77-2.59-25.49-5.24-37.08-11.34-6.45-3.4-13.26-4.08-20.23-4.57-1.61-.11-3,.45-3.98,1.69-8.02,10.16-19.02,15.82-30.65,20.67-9.23,3.85-18.14,8.37-25.81,14.96-.63.54-1.39.93-3.22.21,4.07-4.92,7.44-9.9,13.42-12.51,10.8-4.72,22.43-7.85,31.49-15.95,6.46-5.77,13.06-11.41,19.07-17.61,5.53-5.71,8.22-13.19,10.64-20.67.77-2.4.5-5.25,3.79-8.13-.14,5.57-.63,9.9-1.87,14.09-1.18,3.98-2.52,7.95-4.28,11.7-1.58,3.38-.41,4.07,2.73,4.15,3.18.07,6.62-.93,9.82,1.76-2.7,2.18-5.9,1.63-8.84,3.39,7.84-2.61,11.37,4.5,17.04,6.72,8.73,3.42,17.83,5.86,27.1,6.54,16.89,1.22,33.87,3.11,50.76-.33.76-.15,1.51-.36,2.81-.68-1.98-1.91-3.95-2.64-5.91-3.38-1.26-.47-2.78-.86-2.29-2.65.48-1.76,2.04-2.28,3.59-1.86,2.23.61,4.33,2.08,6.55,2.26,2.75.22,4.66,5.03,8.12,1.44.37-.39,1.21,1.03,1.32,1.8.81,5.85,4.85,6.46,9.58,6.02l-.04-.04ZM288.11,251.66q-.17,7.28,7.13,7.3c1.49,0,2.99.05,4.47-.08,2.87-.24,3.3-1.47,1.75-3.93-2.06-3.26-5.91-4.11-8.47-6.69-1.09-1.1-2.33-3.08-4.03-2.44-2.36.89-.49,3.21-.83,4.85-.07.32,0,.66-.01.99Z" stroke-width="0"/>
  <path d="M321.02,163.03c1.32-8.6,6.65-13.9,14.22-17.42,3.76-1.75,4.43-5.48,4.49-8.9.16-9.74-.73-19.28-6.98-27.5-2.03-2.67-3.45-5.81-4.67-9.06,4.42,2.69,6.42,7.31,9.16,11.28,4.35,6.3,4.22,6.34,8.58.08,2.09-2.99,4.28-5.92,6.52-8.8.66-.85,1.48-2.36,2.74-1.59,1.48.91.63,2.48-.05,3.54-3.04,4.76-5.98,9.61-9.39,14.09-1.67,2.19-2.4,4.02-1.82,6.77,1.45,6.89,1.56,13.9.76,20.88-.26,2.21.3,3.75,1.82,5.35,7.66,8.02,14.56,16.64,25.16,21.54,3.97,1.84,6.92,6.71,9.38,10.77,3.59,5.95,9.06,8.72,15.17,10.56,7.75,2.33,15.12,5.18,20.91,11.1,1.76,1.79,4,2.26,6.33,2.61,6.02.89,11.27,3.93,16.87,6.01.78.29,1.42.83,1.48,1.77-1.19,1.36-2.53.69-3.74.37-4.52-1.17-9.08-2.07-13.73-2.63-3.05-.37-5.85-1.73-8.02-3.81-4.82-4.63-10.7-7.11-16.83-9.39-7.75-2.88-14.46-7.9-20.24-13.47-8.87-8.55-18.75-15.97-27.3-24.84-3.11-3.23-6.54-6.15-8.85-10.12-1.73-2.97-3.97-3.02-7.18-1.51-6.07,2.86-9.86,8.21-14.81,12.26,0,0,.04.04.04.04Z" stroke-width="0"/>
  <path d="M418.98,106.45c-5.03.87-8.09-1.32-10.39-5.34-3.62-6.33-9.65-9.71-16.18-12.28-2.16-.85-4.86-.74-6.65-2.01-5.88-4.18-10.82-2.48-15.85,1.47-2.55,2.01-5.42,3.61-8.39,5.09,2.13-4.21,5.42-7.25,9.49-9.4,3.55-1.87,4.77-3.96,3.6-8.35-2.12-7.99,3.07-14.16,6.78-20.55.26-.45,1.14-.88,1.62-.78.99.22.89,1.27.94,2.07.21,3.09-.93,5.87-1.94,8.7-4.09,11.46-.29,17.34,11.5,20.21,6.73,1.63,12.38,6.2,18.1,10.17.43.3.77,1.23.65,1.76-1.19,5.56,1.89,7.96,6.71,9.24Z" stroke-width="0"/>
  <path d="M423.59,106.99c1.91-3.56,1.88-6.23,1.24-9.3-.48-2.29-1.72-5.48,1-7.77.66-.56.6-1.58.11-2.33-5.22-7.86-10.04-16.02-16.92-22.62-.18-.17-.63-.06-1.29-.09-.48,2.3-.04,5.73-4.18,4.88-2.38-.49-5.43-1.61-5.2-3.86.39-3.87,5.01-1.88,7.33-3.67-.49-2.31-2.2-3.63-3.81-5.04-3.02-2.64-5.88-5.42-8.11-8.78-.7-1.06-2.16-2.15-.9-3.45,1.29-1.33,2.52-.03,3.39.88,4.36,4.58,9.26,8.61,13.13,13.68,5.26,6.88,9.35,14.9,15.35,20.86,6.6,6.55,4.79,13.27,4.15,20.42-.23,2.55-1.26,4.81-5.28,6.19Z" stroke-width="0"/>
  <path d="M79.06,165.46c-11.26,9.66-11.6,9.85-16.76,7.99,8.73-3.64,13.16-10.74,18.47-17.57,4.84-6.22,7.34-13.24,11.25-19.67.52-.85,1.12-1.65,1.79-2.38.55-.6,1.26-1.31,2.15-.81.88.49.72,1.46.41,2.22-1.33,3.22-2.15,6.87-4.23,9.53-5.06,6.48-7.01,14.25-10.06,21.57-2.33,5.59-4.95,10.94-9.86,14.74-1.24.96-3.07,2.57-4.31.82-1.12-1.59,1.12-2.51,2.25-3.23,4.89-3.15,6.93-8.16,8.89-13.2Z" stroke-width="0"/>
  <path d="M53.38,164.87c.35,4.03-1.8,6.35-4.2,8.35-2.83,2.36-1.52,3.3,1.05,4.23,3.31,1.2,6.89,0,10.43,1.07-.3.67-.42,1.38-.68,1.44-7.35,1.62-14.62,2.17-21.72-1.3-2.97-1.45-2.35-3.75-1.65-5.89.93-2.87,2.68-.61,3.99-.25,3.81,1.03,6.35-.85,8.64-3.48,1.16-1.33,1.62-3.29,4.13-4.17Z" stroke-width="0"/>
</svg>