<?xml version="1.0" encoding="UTF-8"?>
<svg id="Layer_1" data-name="Layer 1" xmlns="http://www.w3.org/2000/svg" viewBox="0 0 405.61 232.22">
  <path d="M104.99,129.37c-4.79,3.44-8.78,6.36-12.83,9.18-4.65,3.23-10.67,5.07-11.06,12.51-3.62-6.99,2.62-9.31,5.28-13.29-4.24-.68-5.9.23-7.9,4.7-3.06,6.84-5.84,13.8-8.94,20.62-1.65,3.63-3.43,7.26-5.65,10.55-2.93,4.34-5.78,8.92-11.95,9.58-1.79.19-3.42,1.95-5.09,3.05-2.01,1.32-4.1,2.1-6.58,1.79-1.4-.17-2.99-2.61-3.82-.94-1.2,2.42-2.97,5.22-2.13,8.02,1,3.33,3.37,2.12,4.92.35,2.04-2.33,4.43-3.71,7.44-3.2,7.59,1.28,11.93-3.09,16.2-8.38,6.27-7.76,12.93-15.21,19.55-22.69,1.31-1.48,2.61-3.4,5.91-3.58-3.69,5.15-6.75,9.83-10.23,14.19-4.9,6.12-9.22,12.61-13.37,19.24-3.24,5.17-7.65,9.14-13.54,11.31-1.9.7-2.93.8-3.79-1.43-1.27-3.29-3.35-3.41-6.27-1.4-5.08,3.51-11.24,2.39-16.93,3.31-.67.11-1.47-.26-1.42-1.03.1-1.54,1.38-2.53,2.6-2.69,5.82-.78,6.54-5.41,7.68-9.75.27-1.05,1.14-2.43-.25-3.11-1.28-.63-2.09.74-2.84,1.54-3.07,3.28-6.05,6.65-9.11,9.94-.76.82-1.7,2.11-2.9,1.26-1.46-1.03-.55-2.37.24-3.49,4.16-5.94,9.35-10.83,15.33-14.88,2.65-1.79,5.15-1.2,7.11,1.12,1.37,1.63,3.03,2.86,4.5.94,3.73-4.86,9.11-7.05,14.23-9.76.34-.18.45-.79.97-1.77-4.88,1.36-9.59.65-13.77,3.39-2.27,1.49-5.22.73-7.81.06-4.72-1.22-9.4-2.3-14.15-.07-1.13.53-2.34.5-2.99-.85-.51-1.06-.02-1.99.81-2.64,6.17-4.83,9.74-12.21,16.56-16.51,4.65-2.94,6.96-3.33,10.86.56,2.16,2.15,2.64.78,4.06-.76,9.02-9.81,14.66-21.62,20.35-33.44,3.12-6.48,8.22-10.04,15.53-10.87,5.44-.61,10.77-2.09,16.17-3.14,3.35-.65,4.49-2.51,3.42-5.76-.68-2.06-1.33-4.12-1.94-6.2-2.43-8.18-3.29-16.31.75-24.31.45-.88.94-1.97.24-2.83-.99-1.2-2.17-.19-3.2.16-2.36.81-4.74,1.62-6.99,2.68-3.84,1.82-7.57,2.92-12.01,1.85-3.73-.9-7.57.5-11.26,1.51-1.52.42-2.93,1.68-5.17-.06,6-1.46,11.49-3.53,17.1-3.99,8.6-.72,16.06-4.23,23.2-8.29,14.67-8.33,29.87-13.85,47.03-11.64,16.81,2.17,33.62,4.33,50.37,6.85,5.87.88,11.18-1.44,16.78-1.66,11.12-.43,20.24-5.75,29.87-11.75-5.96-3.02-11.98-2.41-17.78-2.71-1.86-.09-3.53.19-5.08-1.21-2.02-1.82-2.25-3.49.41-4.51,5.01-1.93,9.87-5.3,15.67-2.41,1.08.54,2.18.42,3.32-.21,8.21-4.49,16.81-7.86,26.16-9.18,4.25-.6,8.58,2.1,12.73-.45.21-.13.7-.03.92.14,2.82,2.11,2.73,1.95,6.19.2,10.2-5.15,20.49-10.09,32.74-12.28-8.76-6.83-17.02-7.77-26.46-.74,3.27-7.15,11.07-10.45,17.17-8.06,5.25,2.06,10.33,4.56,15.45,6.93,1.38.64,2.9,1.71,4.23,1.06,2.77-1.36,4.7.18,6.97,1.28-.96-2.7-2.87-3.94-5.59-4.59-2.45-.58-5.37-1.97-4.16-4.96,1.05-2.59,4.22-1.86,6.19-.73,2.9,1.66,7.16.28,9.03,4.15.9,1.87,3.71,4.34,1.88,5.54-2.46,1.62-3.81,5.58-7.41,4.89-10.43-2.01-20.55.31-30.69,1.97-9.64,1.58-17.57,7.11-25.42,12.37-10.14,6.8-20.84,12.25-32.15,16.83-8.44,3.41-16.21,8.42-25.29,10.42-9.95,2.19-19.84,4.12-30.13,2.51-4.75-.74-9.61-.74-14.43-1.06-7.36-.49-14.24-3.06-21.33-4.72-6.67-1.56-13.63-.98-20.41-.48-10.39.77-20.25,3.84-29.41,8.93-2.08,1.15-4.03,2.6-4.81,4.89-3.32,9.71-5.59,19.27-1.58,29.64,4.74,12.26,2.07,20.82-7.98,29.12-2.71,2.24-2.4,3,1.92,3.34ZM69.73,150.53c-1.89-.51-2.5.43-3.15,1.12-3.41,3.63-6.69,7.38-10.18,10.92-3.29,3.33-4.77,3.03-7.01-1.02-3.07-5.56-5.62-5.99-10.26-1.62-1.8,1.7-3.57,3.47-5.14,5.38-.76.92-2.57,2.16-1.48,3.26,1.37,1.38,3.67,1.5,5.63,1.07,1.64-.36,2.52-1.56,1.96-3.38-.37-1.22-1.32-3.01.68-3.17,2.19-.17,1.78,1.87,1.56,3.34-.54,3.58,1.19,4.13,4.08,3.03,4.24-1.62,8.62-2.36,13.16-2.23,1.68.05,3.45-.02,4.45-1.64,2.87-4.66,4.36-9.81,5.7-15.04ZM255.35,34.86c5.39,4.92,11.25,5.11,17.41,1.94,3.54-1.82,7.02-3.77,10.41-5.86,1.46-.9,4.15-1.58,3.58-3.56-.69-2.41-3.56-2.32-5.59-1.94-3.71.7-7.27,2.16-11.01,1.91-.49,1.25,3.63,1.3.51,2.72-3.26,1.49-6.31,3.7-10.29,3.22-1.66-.2-3.69-.47-5.03,1.56ZM111.12,108.59c-4.08,2.11-6.65,4.06-9.85,4.27-5.96.41-9.81,4.88-14.58,7.57-1.06.6-1.75,1.97-2.46,3.08-.52.82-1.02,1.87-.26,2.76.82.96,1.87.39,2.72-.06,2.07-1.11,4.05-2.69,5.78.56.43.81,1.55.34,2.24-.14,6.43-4.47,11.27-10.35,16.4-18.03ZM70.39,144.51c1.98-6.15,5.85-10.05,7.1-15.32,1.39-5.87,3.43-11.15,10.15-12.79.98-.24,2.44.3,2.82-1.34-6.55-1.47-8.99-.48-11.69,5.05-2.92,5.97-5.73,11.98-8.49,18.03-.66,1.45-1.58,2.98.11,6.37Z" stroke-width="0"/>
  <path d="M284.91,132.22c.49,2.15,1.97,3.26,3.9,4.19,12.43,6,25.23,11.4,37.04,18.44,7.14,4.25,14.4,8.22,21.65,12.24,4.92,2.72,11.31,1.37,15.63,5.74.78.79,2.15.96,2.56,2.28-1.2,1.07-2.37-1.36-3.83.29,2.94,2.38,6.03,4.3,9.9,4.65,2.45.22,3.92,1.47,4.76,3.75,2.26,6.14,5.14,8.13,11.71,8.31,1.63.04,3.33-.37,4.88.56-5.94,5.25-17.32,2.47-19.91-4.95-.62-1.78-1.11-2.95-3.31-2.82-2.61.15-4.96-1.01-6.84-2.67-5.81-5.12-12.79-8.42-19.16-12.65-4.15-2.76-9.57-2.77-13.43-6.3-11.28-10.3-26.06-14.46-38.86-22.09-4.28-2.55-8.11-5.71-13.37-5.93-.62-.03-1.45-.3-1.81-.76-5.2-6.61-10.89-3.39-16.54-.88-2.66,1.18-3.42,3.63-3.56,6.16-.21,3.81-.05,7.63-.05,11.5,1.58.96,1.91-1.78,3.58-1.01.02.23.26.79.08,1.05-5.25,7.44-5.16,15.89-4.36,24.33.9,9.59-3.43,17.76-6.4,26.33-.27.77-1.13,1.64-1.93,1.23-3.41-1.74-3.21,1.23-3.56,2.84-.64,2.96.95,5.16,3.31,6.72,2.21,1.46,3.38-.5,4.53-1.79,1.93-2.16,3.29-4.69,3.2-7.67-.36-12.39,1.85-24.17,7.8-35.16.68-1.25.74-2.82,1.07-4.15-1.55-1.13-1.98,1.71-3.1.61-.96-.95-.34-2.25.19-3.27,3.56-6.96,7.12-13.93,10.79-20.83.57-1.07,1.33-2.87,2.84-2.25,1.67.69.72,2.42.18,3.48-3.88,7.61-7.16,15.26-6.98,24.16.05,2.69-2.01,5.63-3.62,8.12-5.47,8.43-6.1,17.72-5.44,27.32.02.33.22.68.15.98-3.34,14.34,8.99,18.08,16.84,24.81.98.84,2.64,1.12,2.43,2.76-.21,1.61-1.72,2.24-3.03,1.97-8.17-1.72-16.27.83-24.41.28-5.68-.38-6.14-1-4.26-6.27,1.42-3.99,1.02-7.53-2.46-10.36-5.33-4.34-7.1-9.36-3.24-15.69,1.37-2.26,2.14-4.88,3.28-7.28,3.79-7.97,7.87-15.79,5.27-25.2-.74-2.69-.01-5.64,1.47-8.21,2.71-4.69-.41-9.9,1.29-14.7.32-.91.16-1.99.29-2.98.85-6.49.86-6.29-5.44-6.26-11.77.05-23.5,1.78-35.31-.61-12.77-2.59-25.49-5.24-37.08-11.34-6.45-3.4-13.26-4.08-20.23-4.57-1.61-.11-3,.45-3.98,1.69-8.02,10.16-19.02,15.82-30.65,20.67-9.23,3.85-18.14,8.37-25.81,14.96-.63.54-1.39.93-3.22.21,4.06-4.92,7.44-9.9,13.41-12.51,10.8-4.72,22.43-7.85,31.49-15.95,6.46-5.77,13.06-11.41,19.07-17.61,5.53-5.71,8.22-13.19,10.64-20.67.77-2.4.5-5.25,3.79-8.13-.14,5.57-.63,9.9-1.87,14.09-1.18,3.98-2.52,7.95-4.28,11.7-1.58,3.38-.41,4.1,2.73,4.14,3.19.03,6.59-.78,9.91,1.69-2.79,2.26-6,1.71-8.94,3.47,7.84-2.6,11.37,4.5,17.04,6.72,8.73,3.42,17.83,5.86,27.1,6.54,16.89,1.22,33.87,3.11,50.76-.33.76-.15,1.51-.36,2.81-.68-1.98-1.91-3.95-2.64-5.91-3.38-1.26-.47-2.78-.86-2.29-2.65.48-1.76,2.04-2.28,3.59-1.86,2.23.61,4.33,2.08,6.55,2.26,2.75.22,4.66,5.03,8.12,1.44.37-.39,1.21,1.03,1.32,1.8.81,5.85,4.85,6.46,9.58,6.02l-.04-.04ZM252.05,220.02q-.1,8.18,7.83,8.16c1.16,0,2.32.02,3.48-.06,3.12-.21,3.88-1.52,1.85-4.09-3.02-3.83-7.68-5.59-11.2-8.82-1.08-.99-2.22-.11-2.22,1.43,0,1.32.19,2.64.25,3.38Z" stroke-width="0"/>
  <path d="M284.95,132.26c1.32-8.6,6.65-13.9,14.22-17.42,3.76-1.75,4.43-5.48,4.49-8.9.16-9.74-.73-19.28-6.98-27.5-2.03-2.67-3.45-5.81-4.67-9.06,4.42,2.69,6.42,7.31,9.16,11.28,4.35,6.3,4.22,6.34,8.58.08,2.09-2.99,4.28-5.92,6.52-8.8.66-.85,1.48-2.36,2.74-1.59,1.48.91.63,2.48-.05,3.54-3.04,4.76-5.98,9.61-9.39,14.09-1.67,2.19-2.4,4.02-1.82,6.77,1.45,6.89,1.56,13.9.76,20.88-.26,2.21.29,3.75,1.82,5.35,7.66,8.02,14.56,16.64,25.16,21.54,3.97,1.84,6.92,6.71,9.38,10.77,3.59,5.95,9.06,8.72,15.17,10.56,7.75,2.33,15.12,5.18,20.91,11.1,1.76,1.79,4,2.26,6.33,2.61,6.02.89,11.27,3.93,16.87,6.01.78.29,1.42.83,1.48,1.77-1.19,1.36-2.53.69-3.74.37-4.52-1.17-9.08-2.07-13.73-2.63-3.05-.37-5.85-1.73-8.02-3.81-4.82-4.63-10.7-7.11-16.83-9.39-7.75-2.88-14.46-7.9-20.24-13.47-8.87-8.55-18.75-15.97-27.3-24.84-3.11-3.23-6.54-6.15-8.85-10.12-1.73-2.97-3.97-3.02-7.18-1.51-6.07,2.86-9.86,8.21-14.81,12.26,0,0,.04.04.04.04Z" stroke-width="0"/>
  <path d="M383.07,75.68c-4.17.88-7.98-.19-9.45-3.79-2.67-6.52-8.61-9.37-13.76-12.5-4.77-2.9-10.8-4.27-16.3-5.67-5.65-1.43-9.64,4.35-14.42,6.86-1.24.65-1.89,2.39-4.16,1.91,2.74-4.26,6.21-7.38,10.47-9.6,3.3-1.72,4.19-3.8,3.14-7.64-2.28-8.28,2.88-14.57,6.83-20.99,1.14-1.85,2.23-.8,2.42.97.33,3.09-.74,5.89-1.77,8.73-4.29,11.81-.65,17.58,11.47,20.58,6.55,1.62,12.05,6.13,17.72,9.87.76.5,1.14,1.31.95,2.16-1.24,5.59,2.04,7.86,6.86,9.11Z" stroke-width="0"/>
  <path d="M371.71,33.77c-.56,2.45.07,5.73-3.78,5.25-2.61-.33-5.86-1.49-5.63-3.94.34-3.69,4.93-2,7.43-3.57-1.42-4.02-5.21-5.67-7.6-8.54-1.6-1.91-3.22-3.81-4.76-5.77-.71-.89-1.69-1.95-.57-3.06,1.12-1.1,2.25-.19,3.04.62,4.41,4.53,9.13,8.74,13.23,13.59,7.2,8.52,12.13,18.74,20.04,26.71.12.12.23.24.33.38,2.16,3.16-1.31,18.02-5.88,21.01,2.97-5.01.97-9.16.8-13.36,0-.15-.23-.35-.19-.44,4.71-9.32-4.36-13.29-7.81-19.27-2.01-3.48-3.77-7.85-8.64-9.6Z" stroke-width="0"/>
  <path d="M43.02,134.68c-5.14,3.52-8.54,9.78-16.18,8.34,8.09-3.99,12.53-11.06,17.84-17.89,4.84-6.22,7.33-13.24,11.25-19.67.43-.71.89-1.42,1.44-2.02.65-.71,1.39-1.76,2.48-1.17,1.11.59.67,1.78.3,2.66-1.28,3.07-2.08,6.53-4.07,9.06-5.09,6.45-7.02,14.25-10.07,21.56-2.33,5.59-4.95,10.94-9.85,14.75-1.24.96-3.06,2.58-4.31.84-1.15-1.6,1.09-2.52,2.22-3.23,4.97-3.1,6.79-8.27,8.95-13.22Z" stroke-width="0"/>
  <path d="M17.28,134.25c.46,3.73-1.62,6.07-4.02,8.06-3.11,2.57-1.62,3.86,1.2,4.38,3.29.61,6.67.71,10.42,1.07-.64.91-.86,1.56-1.18,1.62-7.04,1.26-14.04,1.94-20.88-1.15-2.94-1.33-3.29-3.41-2.35-6.04,1.13-3.14,2.93-.65,4.35-.35,3.6.78,6.02-.98,8.25-3.41,1.27-1.39,1.64-3.68,4.22-4.19Z" stroke-width="0"/>
</svg>