<?xml version="1.0" encoding="UTF-8"?>
<svg id="Layer_1" data-name="Layer 1" xmlns="http://www.w3.org/2000/svg" viewBox="0 0 387.42 237.4">
  <path d="M288.48,127.8c-1.98,4.66-5.22,8.49-8.51,12.19-1.76,1.99-2.47,3.46-.44,5.46,10.14,10.05,18.77,21.55,29.08,31.35,5.84,5.55,12.63,10.25,18.62,15.8,2.15,1.99,3.78,4.08,4.23,7.09,1.17,7.87,6.83,12.14,14.88,10.85,3.03-.49,4.84-.71,5.82,2.9.79,2.91,1.24,2.78,7.11,2.5.76,1.86-3.04,2.43-1.45,4.14,1.31,1.41,3.55.89,5.25.42,3.2-.89,6.31-2.11,9.41-3.31,1.03-.4,2.34-.93,2-2.45-.25-1.12-1.33-1.49-2.32-1.58-4.37-.4-8.34-2.48-12.57-3.14-11.79-1.85-18.21-11.54-26.93-17.84-.26-.19-.16-.86-.45-2.73,5.81,5.23,12.79,6.55,17.42,11.69,2.11,2.35,4.36,3.73,7.74,3.64,8.02-.2,14.38,4.82,21.48,7.48,1.85.69,2.43,2.22-.02,3.54-4.53,2.43-8.86,5.24-13.46,7.52-6.11,3.03-11.68,1.5-14.96-4.38-1.73-3.09-3.87-4.13-7.16-4.21-4.99-.12-9.13-2.2-11.55-6.69-4.99-9.28-12.92-16.13-20.24-23.21-6.74-6.52-11.64-14.55-18.75-20.64-5.06-4.34-9.84-9.01-13.65-14.54-1.22-1.76-2.86-2.62-4.88-3.18-2.23-.63-4.99-1-6.45-2.51-4.95-5.13-6.49-.67-9.29,2.43-10.93,12.13-19.04,26.4-29.77,38.68-6.7,7.67-9.77,17.31-12.72,26.89-.93,3.01.54,4.75,2.98,6.06,3.35,1.78,5.73,4.22,7.06,7.99,1.29,3.65,5.22,4.94,8.04,7.21.92.74,1.97,1.44,1.67,2.82-.26,1.19-1.32,1.52-2.35,1.35-8.76-1.39-17.64.1-26.43-1.25-4.52-.69-5.93-3.32-4.64-6.94,2.29-6.43-.28-10.81-4.63-15.09-4.7-4.62-4.4-4.6.08-9.16,7.57-7.71,14.6-15.88,20.43-25.04,2.21-3.47,2.85-7.44,4.35-11.13,3.05-7.52,8-14.15,9.71-22.34.8-3.85.69-5.46-3.79-5.52-22.77-.3-44.64-4.65-65.09-15.06-2.86-1.46-5.99-1.8-9.17-2.15-6.01-.67-6.69-2.55-3.63-7.52,4.45-7.22,8.97-14.44,11.05-22.82.24-.96.64-1.89,1.05-2.79.1-.22.52-.31,1.1-.63,1.3,3.32-.57,6.12-1.2,9.03-.42,1.95-1,3.88-1.69,5.75-1.26,3.41-4.47,7.48-3.49,9.95,1.06,2.7,6.34.33,9.65,1.33,1.38.42,3.59.37,3.56,2.1-.04,2.4-2.42,1.63-3.91,1.75-2.77.22-5.63-.18-8.39,1.46,9.45,1.03,17.33,6.15,26.19,8.4,11.3,2.87,22.59,5.11,34.19,6.7,12.46,1.71,24.52.8,36.75-.42,1.38-.14,3.38.49,3.94-1.32.47-1.53-1.48-1.96-2.27-2.95-1.31-1.65-3.03-3.09-3.06-6.6,5.4,4.27,10.47,7.81,13.96,12.93,2.73,4.02,4.62,4.5,8.07.79,2.49-2.68,4.78-5.54,7.25-8.24,1.38-1.51,3.12-2.49,5.2-2.74l-.04-.04ZM225.57,232.76c-1.34-1.86-2.2-2.84-2.82-3.97-2.96-5.38-8.79-8.06-12.16-13.09-1.42-2.12-2.08-3.71.15-5.54,2.02-1.66,2.72-4.08,3.69-6.39,4.42-10.52,10.91-19.78,18.24-28.41,3.25-3.83,6.85-7.51,8.29-12.27,2-6.62,6.7-10.95,11.17-15.61,1.15-1.2,2.3-2.4,3.32-3.7.58-.75,1.43-1.64.86-2.68-.6-1.09-1.73-.68-2.69-.52-2.46.39-4.91.95-7.39,1.17-6.6.57-8.33,2.39-8.9,9.71,1.5.25,2.4-.93,3.56-1.48.9-.43,1.85-1.12,2.71-.16.83.93.21,1.87-.42,2.67-.51.65-1.2,1.18-1.66,1.86-3.9,5.87-10.75,9.39-13.84,15.57-6.37,12.74-14.06,24.33-24.53,34.03-1.84,1.71-2.68,3.48-1.12,6.13,1.75,2.96,3.6,6.2,4.08,9.51.87,6.08,3.32,9.11,9.74,7.68.04,0,.2.54.29.78-.58,2.13-3.46,1.12-4.33,3.51,4.19,1.71,8.48.9,13.76,1.2Z" stroke-width="0"/>
  <path d="M105.89,77.72c1.63,1.05,1.64,1.92,1.62,2.72-.27,8.67.03,17.33,1.01,25.93.74,6.5-2.46,10.87-6.91,14.61-3.03,2.55-6.17,5.11-9.97,6.58-.6.23-1.43.44-1.69.92-2.59,4.68-3.38,5.09-10.03,4.74-.2-1.86,2.18-.82,2.65-2.05-5.62-1.25-9.09,1.07-11.62,5.73-6.57,12.08-14.42,23.14-25.55,31.57-1.85,1.4-3.1,3.38-4.2,5.51-2.18,4.22-4.65,4.55-8.26,1.26-.94-.85-1.62-2.7-3.04-1.12-1.69,1.88-2.82,4.31-2.39,6.88.34,2.07,2.15.71,3.31.78.99.06,2.06-.27,2.99-.03,12.88,3.35,19.38-5.24,25.37-13.98,4.97-7.26,10.32-13.81,18.41-17.77,3.42-1.67,6.91-3.27,9.63-6.13,1.16-1.22,2.81-1.74,4.52-1.93,13.44-1.52,26.64-3.95,38.75-10.45.66-.35,1.55-.27,2.49-.42-1.37,3.25-6.87,6.89-13,8.9-6.99,2.3-14.19,3.68-21.42,4.9-4.33.73-6.41,2.69-6.2,7.32.14,3.29-.38,6.65-.94,9.92-.85,4.95-3.77,8.46-8.36,10.46-3.11,1.36-5.44,3.56-7.96,5.77-5.52,4.84-13.3,8.43-19.53,6.75-4.88-1.32-6.45,1.05-9.54,2.05-3.86,1.24-7.93,1.27-11.77-.09-2.37-.84-4.43-.88-6.72.13-5.27,2.34-11.17,1.4-16.64,3.09-2.82.87-4.12-1.7-2.81-4.05,4.13-7.38,9.65-13.68,17.37-17.36,2.99-1.43,6.77-.32,9.38,1.86,2.48,2.07,3.71,1.08,4.34-1.18.97-3.46,3.39-5.07,6.4-6.44,4.4-1.99,7.15-5.84,10.06-9.5,5.72-7.2,9.6-15.39,13.06-23.81,1.24-3.03,3.38-4.46,6.62-4.05,3.92.5,5.17-1.71,5.91-5.08,1.83-8.39,1.94-8.3,10.56-9.88,2.77-.51,5.47-1.43,8.17-2.28,5.78-1.83,6.2-2.68,4.72-8.65-1.84-7.39-2.01-14.68,1.21-22.14ZM66.58,174.88c.08,1.36-.18,2.77,1.27,3.14,1.18.3,1.68-.86,2.11-1.73,1.99-4.04,5.62-5.75,9.56-7.34,2.18-.88,5.45-.57,6.29-3.42,1.16-3.95,1.95-8.04,2.56-12.13.34-2.28-.53-2.39-2.93-1.65-6.77,2.06-8.31,7.51-9.66,13.22-.49,2.06-.74,4.06-3.56,3.7-5.08-.65-4.85,3.32-5.63,6.2ZM105.83,108.63c-2.6,2.09-4.83,3.01-5.49,4.58-1.66,3.96-5.6,4.37-8.49,6.37-.79.54-1.97,1.03-2.65-.04-.67-1.06.31-1.79,1.05-2.47.58-.52,1.58-.67,1.54-1.76-1.1-.79-2.32-.52-3.28.03-3.06,1.74-2.13,4.96-2.37,7.59-.15,1.7,1.54,1.8,2.97,1.64,5.41-.59,14.77-8.86,16.71-15.94Z" stroke-width="0"/>
  <path d="M236.65,45.72c3.7-.72,5.7.76,7.92,1.28,2.57.6,5.21,1.82,6.68-1.89.59-1.49,2.34-1.58,3.47-.88,1.99,1.23-1.42,1.37-.62,2.65,7.22.18,14.55.56,20.78-6.53-7.46-1.48-14.26,1.68-21.14.13,1.45-2.18,3.14-3.8,6.01-3.77,9.41.1,18.92.82,27.36-4.85.96,2.57-.72,2.95-1.67,3.61-2.76,1.9-5.44,3.91-7.39,6.65-3.72,5.22-9.44,7.55-15.02,9.22-6.12,1.83-12.03,4-17.51,7.06-13.06,7.31-26.72,8.24-40.97,4.87-.65-.15-1.31-.34-1.97-.32-16.15.51-31.52-4.69-47.36-6.49-11.95-1.36-23.34.94-33.91,6.14-12.68,6.25-26.52,8.64-39.67,13.27-1.34.47-3.22,1.26-3.68-.93-.39-1.84,1.39-2.45,2.81-2.93,8.66-2.97,17.36-5.82,26.36-7.61,2.81-.56,5.39-1.57,7.9-2.97,12.58-7.01,25.99-9.62,40.35-8.03,14.58,1.62,28.69,5.68,43.12,7.92,11.18,1.74,22.58,1.56,33.76-.19,5.55-.87,10.06-4.95,14.96-7.71,2.11-1.18,1.43-2.27-.49-3.01-3.15-1.22-6.64-1.77-10.08-4.7Z" stroke-width="0"/>
  <path d="M288.52,127.84c.3-.76.4-1.98.93-2.21,5.75-2.48,6.94-7.74,7.92-12.99,1.46-7.78,1.78-15.49-1.98-22.91-4.22-8.35-9-16.28-15.54-23.06-.95-.98-2.87-2.25-1.39-3.65,1.3-1.23,2.73.57,3.8,1.44,4.76,3.88,7.27,9.47,10.2,14.6,3.53,6.18,6.67,12.72,8.88,19.47,1.98,6.04,1.19,12.65-1.12,18.56-2.24,5.72-2.26,10.5-.19,16.61,4.62,13.67,13.03,24.88,20.77,36.6,1.7,2.58,2.72,5.33,2.66,8.43-.02.82-.07,1.74-1.02,2.09-.94.34-1.59-.26-2.11-.92-.72-.91-1.41-1.86-2.02-2.85-8.53-13.66-16.28-27.72-21.57-43.01-.38-1.1-.93-2.14-1.27-3.26-1.16-3.8-3.31-5.16-6.99-2.97,0,0,.04.04.04.04Z" stroke-width="0"/>
  <path d="M373.4,75.73c-3.88.27-5.68-1.91-7.21-4.3-4.61-7.17-10.96-11.33-19.11-14.34-8.01-2.96-13.71-2.15-19.15,4.01-.76.86-1.85,1.98-3.77,1.34,1.79-2.88,3.82-5.35,6.34-7.47,2.54-2.13,3.45-4.75,2.07-8.01-1.81-4.31-1.21-8.29,1.25-12.33,1.61-2.64,2.17-5.91,3.58-8.7.75-1.49,1.97-3.74,4.03-2.89,1.81.75.98,2.97.55,4.49-.94,3.36-2.23,6.62-3.12,9.99-2.23,8.39,1.16,15.01,9.6,16.54,6.97,1.26,11.79,5.85,17.55,8.97,1.87,1.01,3.51,2.59,3.46,5.12-.06,3.14.69,5.9,3.94,7.58Z" stroke-width="0"/>
  <path d="M39.49,117.5c3.61,17.07-3.05,31.48-17.83,39.46-6.49,3.51-15.71,1.68-20.46-4.07-.63-.76-1.57-1.56-1.05-2.6.64-1.28,1.74-.53,2.56-.1,13.68,7.27,19.09.05,26.7-10.61,4.7-6.58,8.54-13.83,10.08-22.08Z" stroke-width="0"/>
  <path d="M340.44,16.13c-9.19-1.07-18.53,1.19-27.84,3.84-1.29.37-3.2,1.62-3.91-.32-.6-1.62,1.61-1.71,2.6-2.43,2.07-1.5,4.45-2.1,6.94-2.61,2.19-.45,5.37-.08,4.8-4.11-.17-1.23,1.12-1.52,2.17-1.39.99.12,1.95.61,2.92.62,2.15.02,4.7,2.78,6.3.05,1.32-2.24-.61-4.26-2.32-6.02-1.9-1.97-1.01-3.3,1.45-3.71,3.1-.52,13.05,4.08,14.51,6.75,1.32,2.43,2.9,5.05-1.67,5.87-2.33.42-2.12,4.55-5.96,3.48Z" stroke-width="0"/>
  <path d="M30.37,111.24c.85,4.39-.96,8.25-2,12.15-2.45,9.19-5.69,18.13-12.93,24.83-1.45,1.34-3.66,5.55-5.26-.44-.56-2.09-3.17-.35-4.83.1-1.13.31-2.39.83-3.03-.63-.49-1.13.42-1.87,1.27-2.4,3.81-2.37,4.5-6.12,5.23-10.21.97-5.45,2.79-10.76,5.01-16.04-.59,8.43,3.17,16.75.53,24.81,3.3-1.79,5.96-5.76,9.19-14.9,2.06-5.84,2.98-12.11,6.82-17.28Z" stroke-width="0"/>
  <path d="M381.17,75.85c1.69-3.42,1.14-6.73-.08-10.04-.54-1.46-.67-3.22.57-4.22,3.18-2.57,1.55-4.74-.08-7.22-7.6-11.53-15.62-22.69-26.34-31.65-1.36-1.14-2.23-2.87-3.27-4.37-.79-1.13-2.66-2.37-.87-3.71,1.4-1.05,2.75.44,3.85,1.45,9.55,8.65,17.45,18.61,23.9,29.76,1.57,2.71,3.59,5.2,5.7,7.53,4.56,5.02,3.51,18.37-1.93,22.45-.2.15-.62.02-1.45.02Z" stroke-width="0"/>
  <path d="M303.77,97.92c2.39-9.04,7.43-16.58,12.49-24.11.45-.67,1.12-1.36,2.07-1.01.75.27.88,1.07.59,1.66-4.16,8.38-8.62,16.59-15.14,23.46Z" stroke-width="0"/>
  <path d="M284.27,22.62c4.54-5.44,13.32-7.63,18.4-5.31,1.09.5,2.12,1.14,1.98,2.54-.12,1.2-1.12,1.67-2.12,1.73-5.74.37-11.49.66-18.26,1.03Z" stroke-width="0"/>
  <path d="M63.8,97.37c-6.89,8.16-14.26,15.9-18.59,25.9-1.61-7.08,9.02-21.82,18.59-25.9Z" stroke-width="0"/>
</svg>