<?xml version="1.0" encoding="UTF-8"?>
<svg id="Layer_1" data-name="Layer 1" xmlns="http://www.w3.org/2000/svg" viewBox="0 0 394.06 240.26">
  <path d="M83.11,81.1c8.2-6.48,17.91-7.52,26.17-12.09-20.48,7.54-42.18,10.08-62.72,17.63-.47-2.4.33-2.84,1.09-3.1,17.59-6.09,34.71-13.6,52.87-17.98,4.02-.97,8.19-1.76,12.37-1.4,4.24.36,8.07-.71,11.17-3.41,7.4-6.46,16.77-6.68,25.63-8.64,13.9-3.07,27.03,1.19,40.38,3.79,16.65,3.25,33.23,7.51,50.39,6.08,9.05-.76,17.35-3.89,24.5-10.89-2.35-1.42-4.78-1.99-5.14-4.72-.43-3.18-.05-5.22,3.95-5.03,4.76.22,9.54.05,15.09.05-2.2,2.7-4.9,3.15-7.94,4.12,2.4,2.47,4.62,2.42,6.93,1.07,4.63-2.7,8.68-6.15,12.6-9.78,2.26-2.09,1.9-3.64-.82-4.85-.3-.13-.62-.27-.88-.47-2.02-1.5-5.95-2.3-4.57-5.49,1.22-2.82,4.92-3.58,7.93-2.44,3.04,1.15,7.12-1.26,9.27,2.73,1.43-1.01,2.85-2.02,4.86-3.44-5.1-1.28-10.06-.33-13.82-3.59,7.69-1.39,15.53.31,23.78-.24-1.41-2.45-3.62-.54-4.48-2.79,7.36-4.84,14.44-10.32,24.38-7.38,1.8.53,4.67,1.97,5.92-.52,1.44-2.88-1.31-4.38-3.23-5.94-.36-.29-.57-.75-1.09-1.46,2.42-1.55,4.66-.99,6.48.45,4.22,3.36,9.15,5.53,13.11,9.47,8.73,8.69,17.88,16.91,25.03,27.08,3.13,4.46,5.65,9.47,10.31,12.74,1.1.77,1.51,2.15,1.44,3.58-.22,4.5-.66,8.98-1.91,13.33-.55,1.9-1.28,3.8-4.24,3.96,3.11-5.71-.64-11.9,2.09-17.57.38-.8-1.04-2.7-1.94-3.84-4.43-5.6-8.9-11.18-13.5-16.65-1.68-2-3.82-5.03-4.96.55-.39,1.93-2.09,2-3.63,1.44-2.07-.76-4.22-1.85-4.32-4.3-.08-1.98,1.95-1.88,3.41-2.09,1.11-.16,2.22-.29,3.42-.45-.28-2.5-1.84-3.81-3.43-4.93-3.99-2.8-7.55-6.03-10.46-9.94-1.77-2.38-3.32-2.34-5.83-.64-4.42,3-9.28,2.83-14.02.32-2.2-1.17-4.34-3.25-4.56,1.84-.14,3.31-3.94,4.21-6.54,5.49-12.82,6.29-23.32,15.19-30.57,27.54-2.96,5.05-7.46,6.21-12.54,6.73-3.59.37-7.32-.54-10.84,1.18.71,1.69,3.04.23,3.71,2.58-2.43.46-4.78,1.05-7.17,1.33-2.5.3-5.22.32-7.23,1.74-9.52,6.7-20.1,4.68-30.67,4.66-18.05-.04-34.93-6.21-52.46-8.9-14.36-2.2-28.59-2.25-42.5,2.24-6.3,2.03-10.8,5.21-11.73,13.38-1.19,10.48-2.87,20.72-.33,31.16.45,1.86-.71,3.01-1.84,4.34-4.24,4.96-8.8,9.4-15.62,10.7,1.16,2.31,3.2.98,5.27,3.43-7.96-.3-15.01,2.11-21.65-1.71-7.07-4.07-6.87-4.25-11.31,2.74-7.09,11.17-15.6,21.05-26.56,28.62-2.9,2-5.59,4.12-7.74,6.96-1.62,2.14-3.71,4.06-6.51,4.32-3.99.36-5.09,2.47-4.48,5.73,13.84-2.32,24.31-10.38,34.07-19.82,5.49-5.32,12-8.85,19.17-12,12.96-5.7,26.51-3.81,39.74-5.54,7.97-1.04,15.7-3.18,23.31-5.41,7.33-2.14,11.59-8.76,15.63-14.86,4.05-6.12,6.8-12.91,8.31-20.17.39-1.89,1.35-3.67,2.06-5.51,2.25.72,1.81,2.32,1.57,3.42-1.52,6.97-1.93,14.24-5.29,20.71-1.78,3.42-.51,4.63,2.88,4.59,3.68-.05,7.33.13,10.88,1.22.94.29,2.16.41,2.28,1.58.13,1.21-1.22,1.39-1.94,2.02-3.48,3.04-7.88,2.06-12.07,3.1,7.06,2.48,13.6,5.93,20.77,8.14,13.8,4.27,27.91,6.19,42.22,6.73,6.95.26,13.95-.54,20.93-.95,1.15-.07,2.34-.53,2.79-1.8.48-1.38-.42-2.17-1.43-2.85-2.34-1.56-6.7-2.2-2.02-6.39,1.05-.93-1.25-3.93-.77-6.16.41-1.91.24-4.58,2.66-4.82,2.64-.27,2.15,2.5,2.46,4.12,1.31,6.68,5.18,12.24,7.88,18.3,1.23,2.76,3.26,1.1,5.04.19,5.3-2.72,10.61-5.44,15.98-8.02,1.42-.68,3.37-1.96,4.6-.43,1.49,1.85-.96,2.69-1.81,3.96-3.36,5.02-8.68,7.1-13.92,9.14-3.58,1.39-4.06,3.12-2.37,6.4,3.04,5.93,5.99,11.89,10.03,17.23.5.66,1.11,1.33,1.34,2.1,4.36,14.41,15.86,25.55,18.88,40.47,1.49,7.37,4.8,12.86,11.16,16.7,1.68,1.01,2.04,2.94,2.1,4.86.05,1.65.63,2.98,2.54,3.09,1.56.09,3.1-.29,4.01-1.6,1.05-1.51-.74-2.26-1.2-3.39-3.87-9.49-12.53-15.97-16.01-25.68-.54-1.51-1.7-2.93-.85-4.88,2.01-.37,2.41,1.42,2.97,2.56,2.44,5.04,6.2,9.03,9.87,13.11.78.87,1.99,1.57,2.33,2.57,4.06,12.11,16.81,13.97,24.79,21.83.04-.08-.1.62-.38.68-9.48,2.12-19.02,3.21-28.6.76-2.8-.72-4.75-2.67-4.59-5.78.2-3.98-2.01-5.78-5.42-6.62-4.74-1.18-6.22-4.07-6.77-8.98-1.24-10.93-4.23-21.33-10.26-30.95-6.44-10.27-11.6-21.34-17.37-32.03-1.42-2.63-2.75-5.38-4.59-7.71-4.63-5.86-10.04-6.03-15.09-.52-6.92,7.55-14.63,14.41-19.86,23.43-2.15,3.71-6.71,4.8-9.66,7.76-.67.67-1.96.79-2.74-.08-.9-1.01-.06-1.87.63-2.56,6.95-6.89,11.01-16.24,18.92-22.28,2.09-1.59,1.27-4.68,3.79-6.11.95-.54-.4-1.75-1.38-1.91-3.79-.64-7.75-1.12-11.4-.03-3.59,1.07-2.93,4.97-4.02,7.65,2.37,1.29,3.37-1.91,5.6-.83.09,2.67-1.58,5.54-3.38,6.02-8.81,2.34-10.72,10.68-15.41,16.57-1.75,2.2-3.37,4.54-4.86,6.93-4.56,7.27-12.18,9.02-19.67,10.95-3.56.92-6.26,2.33-5.93,6.66.16,2.09-1.38,2.9-3.05,3.38-1.67.47-3.11,1.22-3.99,2.77-.57,1-1.4,2.19-.26,3.15.9.76,1.9-.12,2.66-.71,3.75-2.89,7.7-5.14,12.62-5.42,2.19-.12,3.14-2.07,4.21-3.86,3.73-6.24,8.9-11.14,14.93-15.14,1.04-.69,2.53-1.93,3.53-.55,1.01,1.38-.72,2.29-1.62,3.17-4.3,4.19-8.47,8.47-11.87,13.46-.73,1.07-1.74,2.07-2.84,2.74-6.91,4.2-14.69,6.83-21.18,11.85-1.56,1.21-4.28,2.13-6.11.68-2.23-1.77.06-3.94.46-5.92.19-.97.76-1.87.94-2.84.19-1.08.75-2.51-.75-3.02-1.16-.39-1.67.82-2.18,1.64-2.26,3.69-4.49,7.39-6.74,11.09-.73,1.19-1.62,2.41-3.16,1.58-1.7-.91-.67-2.31-.17-3.49,2.3-5.4,5.76-10.11,8.81-15.07,1.12-1.83,3.01-2.01,4.86-1.86,3.77.31,6.67-.52,8.73-4.21,1.59-2.86,4.77-4.26,7.98-4.6,3.93-.42,6.79-2.6,9.54-4.99,3-2.61,5.46-5.79,9.03-7.81,1.19-.67,2.48-2.23,2.62-3.5.7-6.3,5.4-10.09,8.69-14.78,1.72-2.45,3.24-5.05,4.65-7.69,2.99-5.58,2.45-6.7-4.07-7.22-17.63-1.42-34.08-7.15-50.32-13.61-2.92-1.16-5.37-.62-8.43-.12-8.54,1.39-15.26,7.18-24.11,8.13-8.92.95-17.68,2.71-26.73,1.74-10.56-1.13-20.2,1.99-29.88,6.02-9.47,3.94-15.99,10.58-22.29,18.32-4.9,6.02-10.88,11.81-20.12,10.77-1.48-.17-3.35.63-4.64,1.55-5.43,3.89-11.88,2.64-17.85,3.72-1.97.36-3.11-1.27-2.46-3.29,2.54-7.99,8.42-13.35,14.87-18.12.9-.66,2.65-.53,3.91-.28,3.35.67,7.17,2.69,6.21-3.83-.2-1.36,1.68-1.99,3.06-1.97,9.95.12,15.28-7.44,21.28-13.37,4.57-4.52,8.26-10.03,11.87-15.41,4.36-6.5,10.65-6.82,17.28-6.12,3.59.38,6.7,1.07,9.08-2.91,1.44-2.4,4.82-1.9,7.4-2.25,4.43-.6,6.46-2.99,6.41-7.37-.09-7.5-.1-14.97.87-22.45.68-5.24-.6-6.11-5.81-5.45-6.68.85-12.83,3.45-19.01,5.86-2.22.87-4.29,1.77-7.75.31Z" stroke-width="0"/>
  <path d="M380.45,71.75c-3.77-.29-5.64-1.78-7-3.94-6.29-9.99-16.16-13.62-27.11-15.27-3.07-.46-4.35,2.33-5.72,4.2-3.53,4.8-6.55,9.97-10,14.83-4.94,6.97-9.13,14.28-11.84,22.44-1.31,3.95-3.39,7.57-6,10.9-1.1,1.41-2.41,3.23-2.38,4.84.14,9.89-6.24,16.45-11.7,23.41-1.85,2.36-2.54,4.49-1.71,7.28,1.01,3.4,1.14,6.93.88,10.41-.54,7.53.89,14.34,5.05,20.86,3.7,5.81,1.66,12.46,1.64,19.57-2.88-1.56-2.64-3.46-2.72-5.14-.34-6.9-1.41-13.56-5.78-19.24-1.71-2.22-2.15-4.78-2.19-7.52-.09-7.15.32-14.32-.96-21.43-.56-3.12.77-5.7,2.69-8.26,4.35-5.8,8.7-11.5,9.82-19.2,1.51-10.34-1.31-19.52-6.63-27.89-2.66-4.19-3.55-8.78-6.07-13.18,2.72-.86,3.81.65,4.54,1.94,3.81,6.78,8.64,13.04,10.56,20.78.24.96.62,1.9,1.02,2.81,1.14,2.62,2.58,3.03,4.08.33,1.13-2.03,2.1-4.16,3.09-6.27,5.72-12.24,12.09-24.11,20.61-34.68,1.74-2.16,2.35-4.25,1.5-6.91-3.06-9.62,2.7-17.32,5.78-25.58.22-.59,1.35-1.33,1.91-1.22,1.28.25,1.06,1.61.9,2.49-.64,3.43-1.45,6.83-2.18,10.25-2.46,11.43,1.25,16.63,12.93,17.77,5.37.52,8.47,5.06,13.1,6.91,3.32,1.33,6.71,2.91,5.53,7.87-.58,2.42,2.24,3.39,4.35,5.85Z" stroke-width="0"/>
  <path d="M92.96,183.56q-5.37-5.1-7.83,2.13c-.74,2.18-1.37,4.43-2.98,6.16-1.23-.19-1.3-1.12-1.23-1.9.59-6.61,2.81-12.6,6.89-17.88,1.67-2.17,3.93-3.53,6.49-2.58,2.91,1.08,2.89-.6,3.99-2.46,3.56-6.03,5.29-12.39,5.09-19.47,2.05,3.01,2.07,6.41,2.15,9.63.08,3.57,1.08,7.42-2.1,10.53-.75.73-.68,2.56-.57,3.84.19,2.11-1.2,5.37,2.06,5.8,3.21.42,5.84-1.58,6.53-4.94.89-4.36,1.7-8.64.17-13.25-1.75-5.27-1.06-10.69,2.58-15.82.55,4.77,1.18,9.54,1.62,14.33.23,2.48.14,4.99.17,7.48.13,12.25-.94,13.84-12.23,18.29-.77.3-1.45.82-2.22,1.12-1.6.63-3.33,2.85-4.83,1.17-1.32-1.48.97-2.84,1.86-4.11,1.1-1.57,1.03-3.1.23-4.69-1.01-2.02-3.03-2.58-4.93-3.01-1.81-.4-1.64,1.08-1.5,2.28.26,2.25,1.36,4.43.57,7.35Z" stroke-width="0"/>
  <path d="M8.84,132.64c4.57,6.42,5.08,13.57,1.8,18.7-1.37,2.15-3.03,3.4-5.76,2.8-1.88-.42-4.76.06-4.88-2.34-.13-2.69,2.76-1.46,4.3-1.71,3.28-.53,4.46-2.58,4.51-5.55.07-3.73.02-7.46.02-11.89Z" stroke-width="0"/>
</svg>