<?xml version="1.0" encoding="UTF-8"?>
<svg id="Layer_1" data-name="Layer 1" xmlns="http://www.w3.org/2000/svg" viewBox="0 0 394.89 246.49">
  <path d="M49.99,179.48c-.76,6.14-3.41,10.14-4.48,14.61-.23.95-.92,2.05-.16,2.84,1.15,1.18,2.09-.22,3.05-.66,2.9-1.33,4.81-3.24,4.97-6.8.11-2.44,1.03-4.86,1.73-7.24.38-1.28,1.19-2.49-.35-3.53-.98-.66-3.08-.66-2.17-2.58.83-1.75,3.02-2.11,4.39-1.46,4.07,1.94,6.46.19,8.52-3.04.34-.54.9-1.06,1.48-1.31,14.04-6.15,16.07-19.05,17.16-31.9.97-11.42,2.07-13.43,13.69-12.96,9.5.38,18.17-.66,25.4-7.66,2.53-2.45,4.04-4.14,1.97-7.94-4.34-7.95-4.3-16.61-2.4-25.29.27-1.24.47-3.14,2.08-2.98,1.73.17,1.32,2.09,1.27,3.32-.38,10.1.33,19.97,5.3,29.12.95,1.75,1.19,3.63-1.8,3.86-.77.06-1.69.44-2.22.98-8.91,9.32-20.64,9.82-32.34,10.46-.83.05-1.67.03-2.5.08-2.09.11-4.04.57-4.81,2.84-.71,2.1.53,3.53,2.02,4.7,1.04.82,2.24,1.43,3.22,2.81-4.5.73-5.28,3.45-5.97,6.69-.89,4.21-2.68,8.24-3.56,12.45-1.42,6.77-7.37,8.98-11.99,12.49-2.71,2.07-5.16,4.16-6.31,7.49-.57,1.65-1.63,3.08-3.47,3.25-5.85.52-4.79,4.66-4.86,9.97,4.02-5.93,8.45-7.66,14.41-7.37,3.57.18,6.96-2.29,8.69-6.44,4.24-10.2,10.98-18.99,16.76-28.31,2.42-3.9,6.83-5.15,10.98-6.43,10.19-3.15,20.68-5.07,31.16-6.87,5.97-1.03,11.62-2.96,17.26-4.91,12.35-4.26,18.37-14.16,22.11-25.88.54-1.7.54-3.62,2.42-4.97,2.88,5.7-.32,10.24-2.41,14.96-.73,1.64-2.87,3.31-1.95,4.84,1.09,1.82,3.65.52,5.55.63,1.45.08,2.92-.49,4.4-.69,2.17-.29,3.92,1.02,4.16,2.74.35,2.53-2.12,1.95-3.63,2.03-2.46.13-4.92.03-8.65.03,24.37,11.62,49.35,14.45,74.6,16.51-7.46,3.1-15.16,2.88-22.77,1.97-17.75-2.12-35.29-5.63-51.14-14.15-6.26-3.36-10.56-.78-13.97,2.62-5.26,5.26-11.91,5.97-18.24,7.95-2.84.89-5.86,1.27-8.82,1.7-4.78.7-5.97,3.54-5.05,7.88,1.43,6.73,3.8,13.12,6.8,19.27,1.43,2.93,2.17,5.89,1.93,9.15-.23,3.18-.1,6.31,1.58,9.2.76,1.3,1.1,2.84.71,4.35-1.81,6.92-3.64,13.85-5.55,20.75-.68,2.45-2.32,2.82-4.1,1.11-6.17-5.93-10.04-13.25-12.16-21.45-.68-2.61.71-5.17,3.03-6.35,2.9-1.48,2.22-2.59.41-4.32-3.06-2.93-4.36-6.57-4.11-10.83.46-8-3.33-15.23-4.25-22.99-.28-2.39-2.13-1.8-3.89-1.58-9.8,1.26-14.81,8-18.72,16.08-2.03,4.19-4.35,8.27-6.05,12.59-3.71,9.41-10.29,15.06-20.38,16.21-3.2.37-5.6,1.71-7.84,3.86-3.53,3.39-7.82,5.65-12.29,7.54-2.5,1.06-5.11.57-7.11-.97-1.94-1.5-.61-3.77-.08-5.59,1.67-5.7,3.32-11.45,9.34-16.47ZM137.18,181.87c.04-.73.09-1.07.07-1.4-.67-11.06-6.87-20.36-9.82-30.7-.31-1.08-1.17-.93-1.95-.31-1.78,1.4-2.72,3.12-1.23,5.16,1.64,2.25,1.67,4.43,1.66,7.24-.02,5.55.9,11.19,3.31,16.48,1.69,3.72,6.11,6.95,2.11,12.16-1.49,1.94,2.23,3.14,3.44,4.78.57.78,1.6,1.58,2.55.71,1.41-1.28,1.09-3.11.75-4.71-.69-3.25-1.91-6.42-.89-9.42Z" stroke-width="0"/>
  <path d="M266.15,233.4c-1.84-3.53-7.38-3.29-7.63-6.01-.25-2.73,2.68-5.82,3.26-9.18,1-5.79,1.18-11.86,4.78-16.98,2.09.94,1.24,2.35,1.04,3.55-1.01,6.24-2,12.48-3.11,18.7-.47,2.66.4,4.77,2.67,5.91,4.46,2.24,7.72,5.7,10.69,9.56,2.08,2.7,4.92,4.31,8.22,4.99-.31,2.14-1.82,2.22-3.05,2.33-6.67.56-13.31,0-19.9-1.08-1.15-.19-2.61-.48-2.56-1.89.06-1.83,1.81-1.71,3.06-1.71,3.39.01,6.78,1.58,10.35.05-.94-2.98-3.09-4.35-5.71-3.81-4.24.87-9.39-1.37-12.53,3.93-1.02,1.73-2.59-.34-2.24-1.52,1.94-6.66-3.08-8.83-7.25-11.28-3.46-2.03-3.87-4-2.33-7.72,2.21-5.33,6.17-9.47,8.72-14.53,4.71-9.34,8.01-18.93,6.51-29.91-4.05,6.64-10.56,7.53-17.82,7.97-6.23.38-12.28,2.84-18.19,5.16-4.4,1.73-8.92,2.79-13.64,1.79-3.11-.66-5.46.58-7.84,2.3-1.15.83-2.89,1.97-4,.47-1.02-1.37.38-2.88,1.38-3.9,2.3-2.37,5.1-4.02,8.5-3.05,4.75,1.35,9.24.41,13.74-.95,5.86-1.77,11.7-3.62,17.56-5.4,1.11-.33,2.26-.57,3.41-.68,13.15-1.2,16.7-4.78,17.89-18.09.05-.61.21-1.21.38-2.09-5.04,2.01-8.76,5.2-11.91,9.04-2.91,3.53-6.75,5.88-10.22,8.71-6.38,5.2-13.47,1.72-20.16,1.46-3.08-.12-5.42-.3-7.57,2.02-1.85,2-3.92,3.85-6.92,3.18-4.16-.93-6.49.95-7.28,4.75-1.66,8-7.31,9.98-14.42,10.04-4.05.04-5.16-1.42-3.61-5.15,2.17-5.21,6.63-8.26,11.16-11.08,4.22-2.63,8.48-5.38,13.93-2.68,1.86.92,3.41-.76,4.64-2.17,2.77-3.17,6.1-4.11,10.31-3.44,3.41.55,6.98.46,10.46.26,11.12-.64,17.54-7.77,22.04-16.92,2.41-4.9,3.61-10.37,6.35-15.18,1.68-2.95.93-5.28-1.82-7.32-2.69-1.99-3.4-10.74-1.16-13.11,2.1-2.23,3.71-1.41,3.99,1.32.67,6.47,6.13,11.46,5.4,18.43-.22,2.07,1.56,2.17,3.06.76,4.74-4.44,11.49-4.2,16.87-7.17.91-.5,2.12-.36,2.59.71.72,1.64-.48,2.59-1.75,3.03-3.77,1.3-7.57,2.54-11.43,3.57-4.52,1.2-6.71,3.98-6.7,8.64.01,5.33-.08,10.66-.09,15.99,0,3.72-.6,7.31-2.49,10.57-1.13,1.95-1.49,4.03-1.5,6.23-.05,11.97-3.49,23.27-9.73,33.1-3.63,5.72-3.02,8.27,2.04,11.33.96.58,2.02,1.5,2.38,2.5,2.22,6.14,5.61,3.47,9.15,1.66Z" stroke-width="0"/>
  <path d="M128.27,69.41c14.55-15.41,33.3-18.68,52.69-15.33,10.1,1.74,20.09,5.58,30.39,7.55,12.43,2.39,24.94,1.81,37.27.24,4.68-.6,11.38-1.72,10.93-9.69-.11-1.99,1.73-2.62,3.67-2.27,2.09.38,4.2.72,6.22,1.07,1.02-2.02-2.44-2.37-1-4,1-1.13,2.54-.77,3.78-.37,4.67,1.53,6.84-1.03,8.29-4.87,1.51-3.97,3.18-7.56,8.18-8.34,1.36-.21,2.2-.41,3.53.23,2.89,1.39,5.86.69,8.64-.68.9-.44,2.12-1.33,1.37-2.25-5.43-6.62,1.58-9.21,4.34-12.84,2.05-2.69,5.56-3.93,9.08-5.3,1.23,3.7.49,7.22-.42,10.69,1.87.54,1.69-1.66,3.36-1.7.95,2.79-.95,4.77-2.6,6.18-3.43,2.91-6.57,6.03-9.57,9.38-4.34,4.83-10.01,3.68-15.41,2.39-6.65-1.59-7.22-1.29-8.37,6.14,1.92.97,4.04-2.53,5.37-.33,1.18,1.97-2.03,3.11-2.45,5.01-.94,4.22-5.85,2.44-7.88,5.17,2,2.07,4.97-.16,7.58,2.42-5.07.35-9.5,1.29-13.77.79-4.6-.54-8.71.14-12.5,2.33-5.65,3.26-11.5,4.45-18.06,4.59-10.14.21-20.31,1.87-30.37-.19-8.6-1.76-17.08-4.11-25.57-6.4-10.76-2.9-21.43-2.08-32.04.58-7.42,1.86-14.9,3.64-20.91,8.95-.84.75-2.53.55-3.82.79l.05.05Z" stroke-width="0"/>
  <path d="M35.16,91.82c-15.23,7.27-24.36,18.23-23.7,36.79,4.71-6.43,10.04-10.53,16.34-13.81,5.92-3.08,11.33-6.84,18.5-5.08-8.73.73-13.98,5.06-16.25,13.66-1.26,4.77-3.79,9.22-5.85,13.77-.75,1.67-1.89,3.12-5,4.65,4.34-7.37,6.25-14.44,9.34-21.05.52-1.12,1.82-2.5.45-3.59-1.27-1.01-2.5.33-3.53,1.06-5.04,3.6-9.67,7.61-12.97,12.97-2.31,3.75-.8,7.73-1.21,11.64,3.19.48,3.61-3.26,6.63-3.13-1.86,3.84-2.33,8.17-7.76,10.43,4.72.25,8.14-1.14,12.41-4.85,2.89-2.51,5.52-5.31,8.26-7.98,1.6-1.56,3.91-2.44,5.36-.98,1.78,1.81-.8,3.12-1.86,4.41-5.66,6.86-12.68,11.32-21.42,13.66-4.48,1.2-7.74-.91-11.46-1.84-1.76-.45-1.84-2.4-.69-3.72,6.07-7.01,4.97-15.99,6.38-24.16,1.31-7.59,2.01-15.19,6.8-21.61,5.21-6.98,11.94-11.23,21.22-11.24Z" stroke-width="0"/>
  <path d="M388.23,72.32c3.76-3.73.04-8.2,1.5-12.05,3.06-8.08-3.61-12.54-7.29-17.55-6.17-8.38-13.69-15.75-21.6-22.61-.75-.65-1.67-1.2-2.23-1.99-2.89-4.03-5.84-7.55-11.06-2.99-.31.27-1.02.29-1.46.15-8.18-2.71-15.69-.3-23.13,2.9-.54.23-1.32.22-1.88.03-.67-.24-.28-10.16.35-10.62,4.36-3.16,13.09-2.8,17.39.72.65.53,2.05,1.02,1.91.32-.33-1.62,2.95-1.96,1.07-3.71-.73-.68-1.55-1.27-2.26-1.97-.6-.59-1.17-1.31-.71-2.2.47-.9,1.39-.85,2.19-.59,1.1.35,2.22.73,3.2,1.32,13.56,8.16,24.35,19.39,34.53,31.28,5.3,6.19,9.31,13.36,14.74,19.49,2.73,3.08.62,7.08.38,10.6-.26,3.82-.28,8.21-5.65,9.47Z" stroke-width="0"/>
  <path d="M326.26,82.39c.4-9.79,6.61-17.24,10.52-25.59,1.72-3.67,3.28-6.84,1.14-10.75-.82-1.5-.57-3.22-.35-4.9.84-6.56,4.46-12.16,6.36-18.35.38-1.23,1.46-2.71,2.87-2.37,1.99.49,1.42,2.46,1.08,3.8-.77,3.06-1.89,6.04-2.75,9.08-2.98,10.52.52,16.82,11.14,18.43,7.67,1.16,12.94,6.53,19.56,9.46,1.13.5,1.32,1.45,1.05,2.49-1.19,4.59,1.11,6.88,5.96,8.14-4.63,1.2-7.07-.57-9.06-3.74-4.34-6.9-10.62-11.08-18.54-12.85-.81-.18-1.63-.33-2.44-.55-7.55-2.05-10.23-.67-14.94,5.96-3.61,5.08-6.39,10.42-8.27,16.31-.66,2.06-1.38,4.14-3.36,5.4l.04.03Z" stroke-width="0"/>
  <path d="M269.22,197.84c-1.3-6.37,3.11-10.9,5.06-16.22,1.05-2.86,2.05-5.55,1.79-8.65-.54-6.49,3.15-11.85,5.56-17.32,4.94-11.24,10.87-22.06,20.8-29.95,1.2-.95,1.9-2.86,4.57-2.11-1.71,5.65-6.32,8.84-10.18,12.43-2.03,1.89-3.58,3.75-4.42,6.38-2.05,6.39-7.01,11.31-9.04,17.72-.65,2.06-1.81,4.11-1.83,6.18-.13,12.08-6.33,21.72-12.29,31.54Z" stroke-width="0"/>
  <path d="M87,95.2c-2.69-1.95-5.03,1.28-7.64-.09,8.84-4.84,18.63-5.88,28.61-6.96-4.9,2.54-8.47,6.76-13.45,8.93-6.09,2.65-12.23,5.22-18.22,8.08-6,2.86-12.35,3.76-18.85,4.1-1.45.07-2.97-.29-4.39-.69-.9-.25-1.96-.82-1.61-2.09.27-.97,1.26-.99,2.07-1.03,2.49-.11,5,0,7.47-.25,9.12-.88,17.09-5.16,25.27-8.76.34-.15.47-.77.74-1.23Z" stroke-width="0"/>
  <path d="M326.22,82.35c-.83,11.3-5.3,20.81-13.78,28.42-2.01,1.8-3.06,1.78-3.45-1.1-1.47-10.82-5.27-20.84-10.28-30.47-.62-1.2-1.9-3.02.39-3.69,1.81-.52,1.89,1.41,2.16,2.66.83,3.75,4.54,5.72,5.69,9.28,1.68,5.23,3.58,10.4,3.38,16.03-.03.94-.22,2.26,1.04,2.46.61.1,1.45-.67,2.06-1.19,3.26-2.8,5.01-6.59,6.66-10.43,1.78-4.12,3.38-8.33,6.17-11.93,0,0-.04-.03-.04-.03Z" stroke-width="0"/>
  <path d="M128.22,69.35c-1.54,3.63-5.18,3.79-8.21,4.86-5.32,1.88-10.79,3.23-16.43,3.72-1.16.1-2.61.21-3.04-1.06-.57-1.65,1.14-1.86,2.1-2.08,8.51-1.95,16.7-5.45,25.64-5.38,0,0-.05-.05-.05-.05Z" stroke-width="0"/>
</svg>