<?xml version="1.0" encoding="UTF-8"?>
<svg id="Layer_1" data-name="Layer 1" xmlns="http://www.w3.org/2000/svg" viewBox="0 0 396.03 247.29">
  <path d="M115.68,157.6c1.74-5.78,6.91-6.7,11.65-7.92,15.24-3.95,30.96-6.45,44.97-14.2,9.85-5.45,15.05-14.15,16.43-25.21.63-5.03.26-10.18,2.05-15.09.87,8.85,3.24,17.77-1.27,26.35-1.28,2.44-.23,2.82,1.88,3.02,2.48.23,4.94.63,7.38,1.11,1.31.26,2.88.86,2.85,2.38-.04,1.93-1.89,1.36-3.1,1.55-.64.1-1.29.13-1.98.19-.26,1.85,1.28,1.8,2.16,2.19,14.64,6.51,29.86,9.86,46.01,9.84,11.7-.01,10.98-1.43,10.95-11.15,0-2.67-.91-7.69,1.4-7.48,3.26.31,1.41,4.91,1.42,7.58.02,3.46.08,6.99-.23,10.39-.41,4.43,1.15,3.9,4.08,2.86,3.59-1.26,7.26-2.38,10.96-3.25,1.46-.34,3.92-.85,4.3,1.18.37,1.97-2.1,1.6-3.39,1.99-13.43,4.05-17.11,8.11-21.41,24.39,3.44-3.99,4.76-9.64,10.4-13.22-3.59,7.34-5.79,14.35-10.9,19.83-.66.71-1.57,1.66-2.38,1.68-5.92.13-7.22,4.87-9.45,8.9-4.24,7.62-9.35,15.46-16.64,19.47-6.51,3.58-11.43,8.14-16.13,13.3-3.43,3.76-2.99,8.79.33,12.6,2.5,2.87,2.7,8.84.42,12.1-.86,1.24-1.65,2.75-3.53,1.86-1.73-.82-2.76-2.74-1.82-4.13,2.62-3.9.9-7.22-.08-11.09-1.48-5.82-.61-11.63,4.21-16.09,5.49-5.09,10.97-10.19,16.53-15.21,3.91-3.53,7.98-6.83,10.06-11.96,1.76-4.34,4.47-8.05,7.79-11.48,5.51-5.7,7.75-13.51,11.94-20.11,1.86-2.93-1.01-6.03-1.2-9.15-.06-1.03-1.24-.68-2.07-.56-19.01,2.7-36.65-2.42-53.84-9.7-3.07-1.3-4.25-.38-6.62,1.64-6.92,5.88-14.43,11.16-23,14.49-3.55,1.38-7.32,2.26-11.04,3.13-2.88.67-4.24,1.9-2.72,4.86,3.87,7.52,6.84,15.58,12.8,21.87,3.12,3.3,4.9,6.89,4.06,11.69-.59,3.37-.2,6.62,1.08,10.15,2.14,5.89-.81,12.11-.8,18.23,0,.61-.6,1.26-1.42,1.01-.96-.29-.98-1.21-1.17-2.01-.87-3.82.12-7.63.01-11.46-.08-2.67.17-5.33-1.68-7.61-1.31-1.6-.77-3.47-.5-5.29.81-5.54-.33-10.27-4.2-14.77-3.42-3.98-6.37-8.68-8.29-13.56-2.13-5.42-5.67-9.1-10.28-12.08-2.14-1.39-5.11-2.36-6.96-.77-1.72,1.47.53,3.69,1.62,5.17,4.72,6.44,9.25,13.01,13.71,19.64,3.45,5.13,3.04,11.92,7.95,16.38,1.68,1.52.11,3.81-1.55,5.14-2.04,1.63-1.36,2.43.56,3.51,2.37,1.33,5.36,1.59,7.5,4-2.97,1.77-5.8.35-8.99.56,1.29,2.63,2.47,4.89,3.5,7.22.22.5.11,1.39-.22,1.83-.46.62-1.24.31-1.74-.15-3.76-3.57-7.69-7.04-7.37-12.96.09-1.71.13-3.57,1.55-4.59,4.43-3.17,2.07-5.45-.89-7.52-2.24-1.56-3.16-3.6-3.69-6.2-2.6-12.86-11.36-21.94-19.6-31.29-1.53-1.73-3.74-1.9-5.99-.78-2.08,1.03-4.28,1.8-6.43,2.68l.05.04ZM142.73,149.72c3.12,2.35,5.3,2.33,7.64,2.16,12.85-.95,22.65-8.84,33.38-14.58.76-.41,1.33-1.48,1.62-2.37.35-1.07.55-2.46-.66-3.13-1.17-.65-1.67.63-2.35,1.29-5.78,5.55-13,8.28-20.5,10.51-6.09,1.81-12.1,3.86-19.14,6.13Z" stroke-width="0"/>
  <path d="M383.65,74.22c-4.36-.25-6.43-1.42-8.08-4.16-4.14-6.89-10.03-11.66-18.01-13.58-1.29-.31-2.53-.82-3.78-1.27-6.21-2.26-12.11.54-13.74,7.09-3.3,13.27-9.18,25.62-13.46,38.54-.77,2.33-2.28,4.43-3.51,6.6-3.3,5.83-8.07,10.67-10.12,17.43-1.66,5.48-6.33,9.91-11.11,12.5-9.84,5.33-12.03,13.7-12.05,23.6,0,2.17-.51,4.39-.15,6.48,1.68,9.7-2.78,17.43-7.74,25.01-1.75,2.68-3.94,3.79-7.54,3.5-10.59-.84-21.23-.66-31.55,2.25-3.54,1-6.37,3.76-8.58,6.6-4.16,5.37-9.23,10.17-11.81,16.59-1.21,3.02-6.31,4.41-4.54,8.05,1.35,2.79,4.02,5.2,6.14,7.76,1.9,2.29,4.28,4.18,6.47,6.23.85.8,2.06,1.57,1.22,2.88-.93,1.46-2.37,1.08-3.48.19-1.3-1.03-2.74-2.09-3.56-3.47-3.29-5.53-8.27-9.31-13.16-13.2-1.82-1.45-1.68-2.9.07-4.01,5.39-3.44,7.5-9.45,10.98-14.29,4.5-6.25,10.09-10.5,16.55-14.43,5.34-3.25,10.88-7.27,13.75-13.06,2.72-5.49,5.73-10.26,10.66-14.08,8.84-6.86,15.65-15.8,23.07-24.07,5.46-6.08,11.87-11.13,17.39-17.1,1.36-1.47,3.55-2.78,3.89-4.46,1.8-8.9,9.59-13.62,13.95-20.7,3.71-6.03,5.79-12.68,8.18-19.24,3.7-10.15,7.45-20.29,11.16-30.43.71-1.95.61-3.94.13-5.91-2.41-9.78,2.84-17.72,6.29-26.08.31-.76.96-1.47,1.92-1.26,1.03.22,1.15,1.24,1.05,2.01-.25,1.97-.6,3.93-1.08,5.86-.81,3.22-2.12,6.37-2.55,9.63-1.07,8.16,1.56,12.51,9.6,14.35,6.38,1.45,11.56,4.98,17.11,7.91,2.78,1.47,5.37,3.49,5.12,7.32-.18,2.79,2.18,4.13,4.92,6.43ZM251.46,192.48c7.53.28,14.41-.39,21.31-.94,4.08-.33,11.62-7.69,11.46-11.67-.02-.61-.27-1.41-.7-1.76-1.26-1.01-2.15-2.82-3.98-2.72-2.16.12-3.08,2.01-3.49,3.74-1.44,6.16-5.29,8.34-11.33,7.47-1.46-.21-3.01-.17-4.46.07-3.68.6-6.98,1.88-8.81,5.81ZM286.16,154.34c-7.09,4.68-6.47,12.38-10.65,19.49,3.08-1.56,4.79-3.32,6.58-.89,1.02,1.38,2.16.7,2.33-.84.62-5.7,1.13-11.41,1.75-17.76Z" stroke-width="0"/>
  <path d="M49.69,93.71c5.14,1.77,10.03.22,15.29,1.28-4.11,1.41-7.81,1.85-11.51,1.5-11.2-1.06-21.25,2.42-30.9,7.54-2.53,1.34-3.44,3.96-4.39,6.46-1.29,3.4-2.87,6.55-6.19,8.65-1.19-2.01.07-2.94.76-3.96,1.12-1.65,2.95-3.07,3.41-4.86,3.52-13.73,14.84-16.71,26.34-19.85,11.03-3.01,22.2-4.81,33.56-3.81,12.06,1.06,23.37-2.19,34.88-4.62,3.58-.76,7.16-1.39,10.71-2.35,8.14-2.21,14.38-7.28,20.83-12.31,8.17-6.36,17.9-9.02,28.01-10.87,9.99-1.83,18.89.42,28.02,4.27,9.8,4.14,20.48,4.37,30.98,4.04,7.12-.22,14.34.58,21.39-1.28,2.58-.68,4.82-1.45,4.78-4.73-.02-1.45.62-2.57,2.18-2.93,7.06-1.64,13.82-4.71,21.48-2.56,4.35,1.22,8.36-1,11.9-3.73,1.33,2.41-1.98,4.5-.57,7.31,3.9-1.26,4-4.8,5.14-7.76.76-1.96-.1-6.06,2.75-5.42,3.3.74,1.67,4.49,1.12,6.93-2.06,9.19-8.65,13.91-18.22,13.25-4.12-.28-8.37.08-11.88-2.89-1.03-.88-2.68-1.57-3.48-.1-.94,1.7,1.96,1.37,2.08,2.78-12.65.99-24.34,6.92-37.49,6.2-12.6-.69-24.98-1.89-36.71-6.41-21.68-8.36-39.79-1.7-55.97,12.77-3.99,3.57-8.83,4.25-13.25,6.25-9.87,4.46-20.73,4.45-31.22,6.12-12.84,2.06-26.02-.44-38.74,3.02-1.56.42-3.36.06-5.1,2.08Z" stroke-width="0"/>
  <path d="M282.92,43.77c.65-6.3,3.47-10.47,8.21-12.98,7.82-4.13,14.37-9.88,21.09-15.45.2-.16.63-.06,1.64-.11-1.95,5.66-.32,11.45-1.84,17.05-.33,1.23-.66,2.97,1.07,3.35,1.63.36,2.08-1.19,2.53-2.5,2.3-6.68,3.13-13.66,6.78-20.15,2.67-4.75,5.99-6.29,10.31-7.14,2.91-.57,5.28-1.18,7.07-3.89,2.49-3.77,5.61-1.2,7.74.36,4.57,3.34,9.48,5.99,13.64,10.24,10.4,10.63,20.06,21.72,28.15,34.19.9,1.39,1.9,2.73,3.04,3.93,4.61,4.86,5,17.06.59,22.04-.61.69-1.56,1.08-3.51,2.38,3.38-6.74.03-13,2.72-18.72.52-1.1-.63-2.13-1.31-3.08-9.43-13.29-20.04-25.56-31.79-36.86-1.85-1.78-3.39-3.07-5.95-1.07-2.2,1.73-4.83,1.62-6.98-.03-2.75-2.12-5.55-1.83-8.52-.99-3.2.91-6.39,1.83-9.58,2.75-3.78,1.08-5.89,3.55-6.26,7.49-.09.99-.19,1.99-.38,2.97-1.78,9.68-3.94,11.21-13.84,10.22-3.9-.39-7.62-.09-10.98-3.37-2.32-2.27-5.32-.3-6.98,2.45-1.54,2.56-3.04,5.11-6.66,6.91Z" stroke-width="0"/>
  <path d="M98.68,148.12c-.03-11.09.45-11.63,10.04-12.72,3.14-.36,6.3-.83,9.44-.8,7.51.09,11.82-4.58,15.59-10.08,1.47-2.14,1.11-4.54-.04-6.68-4.78-8.89-3.75-18.77-4.96-28.27-.14-1.08-.29-2.64,1.24-2.85,1.14-.16,1.55,1.12,1.81,2.07.63,2.23,1.61,4.49,1.66,6.75.21,10.42,4.36,19.32,10.14,27.66.66.95,1.67,1.88,1.14,3.12-.65,1.51-2.01.67-3.08.56-1.55-.16-3.04-.17-4.07,1.24-4.75,6.49-11.7,9.45-18.94,12.04-2.9,1.04-5.19,2.1-8.46-.2-3.33-2.35-7.33.2-7.66,4.45-.79,10.12-1.15,20.27-1.88,30.39-.46,6.31-1.45,12.56-5.37,17.87-2.65,3.6-5.6,3.74-8.62.43-.89-.98-2.07-2.04-1.18-3.47.85-1.36,2.55-1.37,3.55-.5,2.72,2.35,3.78.35,4.85-1.6,1.76-3.22,3.55-6.49,3.66-10.25.33-10.31-.34-20.66,1.12-29.16Z" stroke-width="0"/>
  <path d="M45.33,131.54c-5.12,5.63-11.19,10.27-15.88,16.27-6.74-.97-8.16,6.5-13.31,8.36-4.91,1.77-7.78,1.27-9.72-3.46-.5-1.22-1.14-1.52-2.24-.88-1.25.72-2.36,1.89-4.07,1.35-.58-2.05,1.2-2.64,2.15-3.56,2.95-2.87,5.5-6.24,5.97-10.19.94-7.9,6.06-12.62,12.01-16.28,8.65-5.32,18.04-9.12,28.63-8.71-4.9,1.18-9.34,3.65-14.18,4.92-15.7,4.12-23.01,15.27-25.7,30.36-.27,1.51-.36,3.05,1.1,4.07,1.3.9,2.56.22,3.77-.34,5.63-2.65,9.8-7.33,14.89-10.75,5.52-3.71,10.02-8.92,16.58-11.15Z" stroke-width="0"/>
  <path d="M115.63,157.56c-1.13,11.39-3.39,22.63-4.27,34.07-.32,4.17-3.32,8.2-6.83,10.62-5.95,4.09-11.58,8.82-18.42,11.51-1.35.53-2.79,1.17-4.23-.02-.07-1.74,1.41-2.11,2.48-2.73,3.13-1.82,6.37-3.34,8.1-6.97,1.02-2.14,3.63-2.89,5.76-3.7,6.76-2.57,8.88-8.05,9.39-14.53.62-7.99,2.01-15.79,4.87-23.3.71-1.88,1.42-3.74,3.21-4.91,0,0-.05-.04-.05-.04Z" stroke-width="0"/>
  <path d="M80.51,102.08c2.69-2.46,5.24-2.37,7.69-2.42,6.58-.15,12.76-2.25,19.02-3.9,1.61-.43,4.38-.59,2.45-3.89-1.03-1.76.91-2.72,2.31-3.1,4-1.08,8.05-1.98,12.1-2.85,1.19-.26,2.43.1,2.91,1.38.6,1.6-.36,2.78-1.72,3.07-10.94,2.35-19.07,11.31-30.38,12.79-4.66.61-9.22.77-14.38-1.09Z" stroke-width="0"/>
  <path d="M98.59,106.44c-11.05,9.6-23.9,13.51-37.64,15.11-1.24.14-3.15.36-3.27-1.36-.13-1.87,1.87-1.32,3.04-1.67,7.16-2.11,14.57-3.66,21.38-6.6,4.26-1.84,7.62-5.72,12.77-5.92,1.13-.04,2.25-.51,3.72.42Z" stroke-width="0"/>
  <path d="M220.24,194.98c-4.7-.43-8.54-2-12.12-3.74-2.57-1.25-3.21-3.67-.21-5.88,4.09-3.01,8.6-5.05,13.46-6.37,1.39-.38,3.36-1.08,4.02.61.76,1.92-1.48,2.32-2.69,2.89-2.54,1.19-5.29,1.84-7.55,3.73-2.44,2.04-4.03,3.5.55,4.63,1.74.43,3.48,1.2,4.54,4.13Z" stroke-width="0"/>
  <path d="M87.34,204.84c-2.52-1.35-1.76-5.54-4.8-4.89-2.42.52-1.54,3.7-2.27,5.65-1.07,2.84-1.5,5.78-1.92,8.75-.14.96-.54,2.17-1.81,1.94-1.12-.2-1.33-1.33-1.32-2.39.01-7.06,2.39-13.4,6.12-19.23,1.87-2.93,3.8-1.53,4.81.75,1.27,2.88,1.92,6,1.19,9.42Z" stroke-width="0"/>
  <path d="M311.21,98.83c-3.24-3.17-4.16-6.03-5.45-8.62-3.17-6.41-7.21-12.27-11.22-18.15-.54-.79-1.44-1.65-.4-2.59.74-.67,1.55-.27,2.14.42,6.93,8.07,12.48,16.87,14.92,28.94Z" stroke-width="0"/>
</svg>