<?xml version="1.0" encoding="UTF-8"?>
<svg id="Layer_1" data-name="Layer 1" xmlns="http://www.w3.org/2000/svg" viewBox="0 0 380.46 232.42">
  <path d="M226.75,217.31c-2.21,2.6-4.29,3.16-6.39,3.69-.78.2-1.81.21-1.87,1.29-.05.96.77,1.41,1.57,1.68,3.79,1.28,7.55,2.67,11.39,3.74,2.47.69,3.85-.43,2.27-2.86-3.08-4.75-4.48-10.72-10.73-13.19-4.3-1.7-4.42-6.76-6.04-10.46-.64-1.47.94-2.14,2.1-1.16,1.24,1.05,2.33,2.44,3.04,3.89,1.22,2.47,2.8,4.7,5.08,6.05,6.86,4.06,9.06,11.26,12.36,17.72.97,1.9.85,3.49-1.69,4.19-7.12,1.97-19.17-1.8-23.45-7.43-.5-.66-1.46-1.46-1.35-2.02,1.15-5.55-3.82-6.12-6.64-8.5-7.99-6.76-16.12-13.33-24.77-19.22-3.56-2.42-7.31-4.61-11.14-6.59-5.51-2.84-6.5-5.62-3.54-11.17,2.25-4.23,5.84-7.76,6.58-12.76.24-1.64.79-3.26.82-4.9.06-2.96.63-6.55-2.47-8.13-2.75-1.4-4.61,1.65-6.87,2.85-5.27,2.8-10.24,6.2-15.96,8.17-4.11,1.41-8.17,2.96-9.17,8.11-.66,3.39-.28,6.16,2.56,8.5,3.59,2.96,7.02,6.13,10.43,9.3,2.32,2.16,5.13,4.58,5.21,7.7.29,11.25,2.23,22.52.18,33.78-.25,1.36-.6,2.94-2.29,2.68-1.67-.25-1.9-2.09-1.48-3.24,2.9-7.92-2.63-10.45-8.12-13.06-.98-.47-1.8-1.61-3.76-.52,2.2,4.19,4.84,8.02,8.13,11.45,1.29,1.35,3.81,3.06,1.77,4.87-1.98,1.76-4.02-.29-5.28-2.12-2.07-3.02-4.14-6.06-5.88-9.27-3.48-6.46-2.63-9.72,3.58-14.09-4.53-1.8-6.08-5.49-7.8-9.64-2.52-6.08-5.85-11.9-10.97-16.49-5.59-5.02-10-11.1-14.14-17.36-1.99-3.01-1.37-5.31,1.83-6.94,2.81-1.43,5.5-3.38,8.48-4.18,7.53-2.01,12.64-6.97,17.47-12.62,2.7-3.16,1.97-5.76-1.12-7.39-8.19-4.31-13.23-10.65-15.17-19.79-1.08-5.07-2.82-5.64-7.51-3.63-7.26,3.1-14.52,6.22-21.7,9.5-2.14.97-3.55.52-4.61-1.32-.77-1.33.06-2.59,1.24-2.72,6.56-.71,11.03-6.85,17.97-6.65,2.61.07,5.24-.81,7.88-1.1,1.84-.21,3.36-.74,3.46-2.82.1-1.93,1.03-4.46-.76-5.61-1.8-1.16-3.13,1.19-4.57,2.17-7.49,5.1-15.29,9.26-24.72,9.34-8.85.07-17.51-1.09-26.28-2.21-12.63-1.61-25.57-2-38.26.5-1.15.23-6.23-.97-3.48,3.77.04.07-.4.57-.66.63-6.6,1.51-12.17,5.81-18.92,6.91-1.01.16-2.09.27-2.51-.96-.45-1.33.39-2.36,1.32-2.99,5.52-3.7,10.91-7.9,17.43-9.48,19.02-4.6,38.06-4.44,57.34-.71,14.67,2.84,27.59-2.8,39.92-10.6,6.21-3.93,9.91-10.14,15.3-14.43,10.02-7.98,21.48-13.75,34.3-16.52,9.42-2.04,18.41-.76,27.52,1.6,10.99,2.84,22.41,4.5,33.58,3.84,11.06-.66,21.59-3.86,31.39-10.85,6.4-4.56,11.42-7.05,11.23-16.1-.07-3.27,3.41-8.64,9.95-9.36,2.35-.26,3.43-1.79,4.57,1.33,2.09-2.57,2.33-5.38,2.49-8.21.34-5.94,2.95-10.07,9.02-11.63,6.61-1.69,13.15-3.61,20.1-3.11,2.83.2,4.63-.01,2.81-3.89-.78-1.65-3.91-4-1.43-5.91,2.31-1.78,4.9.45,7.38,1.43,8.7,3.44,15.82,9.27,23.24,14.69,8.24,6.01,15.27,13.27,22.05,20.81,1,1.11,1.9,2.51,3.17,3.16,7.08,3.68,7.49,10.17,7.65,16.96.11,4.68-1.28,8.19-5.92,9.83-4.99,1.77-11.23.19-14.14-3.53-5.11-6.5-11.72-9.99-20.05-10.11-.83-.01-1.67,0-2.5-.08-8.03-.72-8.08-.54-11.97,6.71-3.02,5.63-3.29,11.8-4.28,17.86-1.95,11.98-3.59,24.05-10.26,34.65-1.45,2.3-1.5,5.09-1.73,7.74-.53,6.23-1.43,12.25-6.22,16.94-1.59,1.56-1.52,3.27-.42,5.41,4.49,8.74,8.92,17.42,16.77,23.87,2.9,2.38,2.54,11.11.01,13.83-.58.62-1.18,1.29-2.11.87-1.08-.49-1.38-1.72-1.09-2.56,2.04-6.07-3.11-8.88-5.71-12.81-.95-1.43-2.4-2.73-4.15-1.3-1.61,1.31-1.25,3.16.2,4.33,2.66,2.15,2.51,4.74,1.97,7.69-.73,4.01-.96,7.89,4.84,8.21,1.24.07,2.17.92,2.16,2.32-.01,1.39-1.03,2.12-2.17,2.44-9.19,2.59-15.62,9.16-22.37,15.31-1.47,1.34-3.13,2.45-4.26,4.15-1.89,2.83-4.36,4.27-8,4.03-2.26-.15-4.72.35-6.85,1.19-5.9,2.34-11.98,2.59-18.18,2.38-2.14-.07-4.31.26-6.45.54-1.42.19-3.01,1.3-3.99-.57-.75-1.43.46-2.53,1.24-3.55,4.7-6.11,11.63-9.85,16.76-15.52.39-.43,1.47-.88,1.77-.67,5.71,3.95,8.74-3.26,13.62-3.2,5.37.08,9.57-3.54,14.2-5.71,2.23-1.04,4.45-2.13,6.33-3.92,6.85-6.51,6.77-9.1-1.1-14.66-4.88-3.45-10.64-5.49-15.27-9.43-2.4-2.04-3.54.3-4.6,1.93-4.69,7.24-10.12,14.12-12.44,22.63-2.07,7.59-8.17,10.32-14.55,13.09-4.8,2.09-8.56,1.14-12.79-1.77-7.54-5.18-15.84-9.02-24.74-11.44-2.16-.59-4.28-1.74-5.1-3.75-2.11-5.15-7.08-6.19-11.18-8.55-2.59-1.49-3.22-.27-3.34,2.09-.33,6.61,3.68,10.6,8.28,14.46,4.17,3.49,8.95,5.93,13.69,8.18-.45,1.67-1.37,1.68-2.14,1.48-9.92-2.61-17.71-8.23-23.22-16.88-1.77-2.78-1.67-6.03-1.72-9.21-.05-2.86-6.11-8.39-8.78-8-1.5.22-2.12,1.59-1.32,2.57,2.79,3.39,1.44,6.93.81,10.49-.17.95-.53,2.14.8,2.51.95.26,1.38-.66,1.8-1.38.56-.95.91-2.44,2.48-1.71,1.22.57,1.4,1.99,1.2,3.08-1.54,8.29,3.19,12.4,9.8,15.71,5.49,2.75,10.32,6.5,14.52,11.1,2.7,2.96,7.74,2.75,10.02,6.19,1.86,2.81,4.13,4.08,8.1,4.09ZM292.24,88.66c5.26,6.7,8.16,13.07,10.42,19.8.58,1.73,1.17,3.8,3.39,3.78,2.13-.01,2.75-1.86,3.51-3.66,4.06-9.54,6.77-19.43,8.01-29.72,1.17-9.67,3.23-19.04,9.21-27.08,1.25-1.68.72-3.04-.94-4.21-3.68-2.59-4.9-6.45-4.18-10.57.79-4.56,2.31-9,3.65-13.45.38-1.25,1.28-2.84,2.72-2.49,1.97.48,1.29,2.41,1.11,3.82-.47,3.8-1.26,7.57-1.51,11.37-.47,7.08,5.22,13.65,12.29,13.61,7.77-.04,13.87,4.07,20.47,7.05,2.2.99,2.9,2.9,3.36,5.18.44,2.17,7.38,4.44,9.96,3.34,3.04-1.29,2.74-3.8,1.93-6.35-.76-2.39-1.89-4.94-.82-7.3,2.16-4.75-.75-7.48-3.92-9.48-2.62-1.66-4.86-3.51-6.54-5.97-4.58-6.73-12.93-9.25-17.55-15.9-.34-.5-1.08-.8-1.7-1.01-3.74-1.26-6.84-3.43-9.22-6.56-1.61-2.12-3.37-2.11-4.99-.34-2.34,2.56-5.19,2.78-8.24,2.23-2.8-.5-5.24.39-7.71,1.49-8.71,3.88-16.92,8.5-22.59,16.46-4.86,6.82-13.67,12.66-6.32,22.9.09.12.1.32.11.48.15,1.77-.69,2.99-2.22,1.68-5.01-4.27-4.25,0-4.61,2.89-.77,6.09-1.25,12.29-6.21,16.84-.95.88-1.74,2.36-3.27,1.84-1.55-.53-1.34-2.13-1.38-3.44-.04-1.62,0-3.25,0-5.88-5.75,5.68-12.38,4.33-18.51,5.12-1.25.16-2.72.91-3.76-.33-1.27-1.5,1.66-2.14.99-3.96-4.24.23-8.51-.09-12.5.81-7.13,1.62-14.16,1.65-21.32.61-10.34-1.49-20.76-2.16-31.1-3.89-13.44-2.25-26.08,1.06-37.66,8.05-13.57,8.18-20.53,15.05-16.87,30.68,2.43,10.38,7.12,19.4,18.39,22.98,1.89.6,3.8,1.38,5.46,2.44,1.91,1.23,2.38,3.81-.05,4.07-6.62.71-8.26,6.01-10.94,10.43-1.45,2.39-3.42,4.02-6.03,4.93-4.85,1.7-9.37,4.23-14.57,5.03-3.49.54-4.38,2.15-2.76,5.98,2.88,6.79,9.37,10.17,13.46,15.86,5.64,7.84,9.86,16.87,17.69,23.1,2.14,1.7,2.02,4.79.64,6.43-3.94,4.7.78,5.53,2.96,7.17,2.08,1.56,3.58.75,2.98-2.07-.82-3.81-.52-7.65-.39-11.46.16-4.72-1.36-8.35-5.26-11.17-6.21-4.5-10.26-10.81-13.86-17.43-2.35-4.32-1.37-7.99,2.77-10.55,1.7-1.05,3.4-2.19,5.25-2.86,10.41-3.76,20.01-8.91,28.55-16,10.74-8.91,16.44-19.76,13.66-34.08-1.11-5.72-2.12-11.45-3.89-17.02-.44-1.39-.58-3.38,1.21-3.86,2.16-.58,2,1.57,2.48,2.9,2.8,7.86,2.78,16.37,5.63,24.24.91,2.5.56,5.27.09,7.92-.53,3.01,4.07,10.36,6.69,11.8,13.84,7.58,28.79,6.7,43.72,5.98,3.91-.19,6.27-1.11,4.5-6.18-1.45-4.16-1.73-8.9,1.69-12.77.85-.97,1.49-2.54,3.11-1.9,1.46.57,1.47,2.15,1.44,3.46-.06,2.32-.23,4.64-.44,6.96-.57,6.22,2.28,9.51,8.46,9.52,7.53.01,14.83-1.75,22.18-3.07,13.03-2.35,20.74-17.51,15.76-29.33-.58-1.38-1.29-2.77-1.52-4.22-.78-4.95-4.82-8.96-4.55-15.67ZM190.75,163.24c3.71,3.23,5.85,2.85,9.91-3.04,2.03-2.94,4.72-3.29,5.83-.99,2.49,5.12,7.16,5.88,11.49,7.72,1.29.55,2.49,1.76,3.27,2.96,4.21,6.48,10.98,8.96,17.71,11.35,4.19,1.49,8.39-.59,8.84-4.76.87-8.07,1.1-16.22,1.23-24.35.06-3.84-2.27-5.53-6.28-5-11.99,1.56-23.91.55-35.64-2-4.92-1.07-6.74.95-7.58,5.11-.33,1.63-.91,3.35-.67,4.92.63,4.18-1.91,5.62-5.13,6.67-1.05.34-2.41.03-2.98,1.41ZM285.71,141.32c-1.4.09-2.11-.06-2.61.2-5.83,3.05-11.91,4.57-18.58,4.74-6.65.17-9.79,3.95-11.18,10.56-1.18,5.64-1.38,11.34-.76,16.9,1,8.93-7.35,15.94-16.9,11.43-5.93-2.8-11.39-6.16-16.23-10.59-2.62-2.4-5.3-4.72-9.3-2.58-1.48.8-2.34-.54-3.34-1.45-1.97-1.81-1.48-4.5-2.46-7.27-2.41,2.75-5.68,4.72-1.75,8,6.76,5.63,13.91,10.76,22.35,13.56,5.31,1.76,9.78,4.87,14.4,7.78,4.59,2.88,16.62.09,18.37-4.99,2.98-8.64,8.75-15.6,12.95-23.48,4.17-7.83,9.28-15.13,15.04-22.8ZM183.38,158.61c1.64-.23,3.28-.44,4.91-.7,3.92-.63,9.47-11.81,7.64-15.34-.61-1.18-1.77-1.43-2.85-1.82-6.48-2.34-14.33,4.46-14.7,12.52-.17,3.71.76,5.9,5,5.34ZM300.82,149.8c-1.11-1.99-.5-5.68-4.15-6.28-3.55-.59-13.93,7.83-14.39,11.44-.06.45.05,1.09.34,1.38,2.43,2.4,5.43,3.92,8.75,4.4,3.09.45,3.64-2.3,4.55-4.41.61-1.43,1.52-2.58,3.02-3.15,1.37-.53,2.32-1.33,1.89-3.37ZM292.02,198.53c-7.28,2.73-15.34-1.27-20.2,5.87-.12.17-.65.15-.96.08-4.5-1.06-5.69,2.3-7.09,5.33-.41.89-.96,1.97-.22,2.81.89,1,1.84.01,2.67-.37,3.17-1.46,6.24-3.59,9.73-3.72,6.91-.27,11.12-4.49,16.06-10Z" stroke-width="0"/>
  <path d="M45.01,131.35c-6.97,2.63-14.38,1.37-21.5,2.41-6.85,1-13.72,1.19-17.57,8.28-.47.87-1.36,1.69-2.4.71-.73-.69-.18-1.47.25-2.22,2.64-4.62,6.61-7.46,11.77-8.38,9.02-1.61,18.13-2.29,27.3-2.04.76.02,1.71-.14,2.15,1.24Z" stroke-width="0"/>
  <path d="M141.26,115.54c3.07-.02,12.65,7.95,12.99,10.45.14.99.27,2.06-.57,2.79-.74.64-1.52.19-2.23-.3-3.96-2.71-7.57-5.8-10.72-9.44-.68-.78-1.23-1.68-.64-2.67.28-.47.97-.7,1.16-.83Z" stroke-width="0"/>
</svg>