<?xml version="1.0" encoding="UTF-8"?>
<svg id="Layer_1" data-name="Layer 1" xmlns="http://www.w3.org/2000/svg" viewBox="0 0 339.75 305">
  <path d="M339.75,305c-22.38-12.55-45.36-23.1-69.21-31.73-36.92-13.36-74.69-21.94-114.31-20.81-25.82.74-50.47,6.29-74.24,16.18-3.53,1.47-7.14,2.85-10.83,3.8-6.83,1.75-11.02-.06-12.63-6.92-2.41-10.33-4.73-20.89-5.17-31.44-1.59-38.61-14.21-73.53-32.99-106.83-7.34-13.01-12.92-27.02-19.28-40.58-.4-.85-.59-1.8-1.11-3.41,5.13,1.73,9.58,3.38,14.12,4.73,15.89,4.72,31.51,5.19,46.24-3.81,9.23-5.64,15.48-14,20.4-23.44,8.77-16.82,12.14-35.16,15.06-53.63.33-2.08.8-4.14,1.39-7.11,1.27,1.51,2.15,2.21,2.58,3.13,12.36,26.26,33.31,42.87,59.33,54.48,13.16,5.87,26.13,12.67,38.03,20.76,19.57,13.3,31.7,32.92,41.33,54.14.18.4.07.93.13,1.99-1.89-.85-3.5-1.5-5.05-2.26-19.56-9.65-39.07-19.4-58.69-28.92-3.55-1.72-7.45-2.93-11.32-3.71-6.28-1.26-8.94,1.01-8.33,7.46.52,5.43,2.06,10.77,3.15,16.14.35,1.71.71,3.42,1.07,5.13-.39.21-.78.41-1.17.62-1.23-1.4-2.45-2.81-3.71-4.18-7.75-8.44-15.3-17.08-23.39-25.18-2.71-2.71-6.61-4.55-10.3-5.9-8.95-3.26-16.89-.95-23,6.22-15.06,17.66-23.55,44.36-5.29,69.84,9.19,12.82,20.86,22.99,34.29,30.89,11.53,6.78,24.63,6.4,37.51,5.42,30.39-2.3,59.61-10.49,88.95-18.05,9.79-2.52,19.56-5.1,29.92-6.62-1.33,1.01-2.67,2.02-4,3.04-9.22,7.11-18.57,14.04-27.56,21.43-2.88,2.37-5.09,5.74-7.04,8.99-5.47,9.07-3.79,17.68,5.11,23.42,7.54,4.86,15.56,9,23.52,13.15,24.68,12.87,45.75,30.3,64.48,50.72.78.85,1.33,1.91,1.98,2.87Z" fill="#01172f" stroke-width="0"/>
</svg>